<?xml version="1.0" encoding="iso-8859-1"?>
<!-- Generator: Adobe Illustrator 16.0.0, SVG Export Plug-In . SVG Version: 6.00 Build 0)  -->
<!DOCTYPE svg PUBLIC "-//W3C//DTD SVG 1.1//EN" "http://www.w3.org/Graphics/SVG/1.1/DTD/svg11.dtd">
<svg fill="#f2cf8d" version="1.1" id="Capa_1" xmlns="http://www.w3.org/2000/svg" xmlns:xlink="http://www.w3.org/1999/xlink" x="0px" y="0px"
	 width="594.817px" height="594.817px" viewBox="0 0 594.817 594.817" style="enable-background:new 0 0 594.817 594.817;"
	 xml:space="preserve">
<g>
	<path d="M449.243,541.591c0,16.709-11.902,19.771-18.481,20.207h-81.209c-16.991,0-19.571-13.057-19.88-19.053V311.11
		c22.551-15.36,37.934-36.671,41.559-60.744c1.672-9.917-8.014-10.966-11.14-11.007h-29.929
		c2.508-30.729,27.93-54.938,59.295-54.938c33.018,0,59.785,26.758,59.785,59.79V541.591L449.243,541.591z M245.074,318.397
		c-39.165,0-71.392-22.365-75.84-51.163c-1.09-6.892,7.096-6.801,7.096-6.801h137.797c1.717,0.036,6.941,0.623,6.986,5.852
		C317.243,295.537,284.652,318.397,245.074,318.397L245.074,318.397z M428.581,161.088c-0.227-0.177-0.417-0.345-0.744-0.531
		c-9.704-5.565-9.341-15.819-9.341-15.819V65.759c0-9.676,6.088-9.408,6.088-9.408l-0.073-0.177c5.452-0.677,7.178-4.484,7.56-7.505
		V13.906c0-11.766-8.85-13.665-13.029-13.906H359.22c-11.366,0-12.774,9.349-12.911,13.115v30.62c0,9.872,5.643,12.08,8.623,12.561
		v0.009h0.018c0.473,0.073,0.854,0.131,1.163,0.141c1.672,0.4,4.634,2.104,4.634,9.313v82.305c-0.382,3.403-2.062,8.55-8.177,11.953
		c-0.363,0.195-0.481,0.381-0.781,0.577c-28.83,14.02-48.773,43.421-48.773,77.625v1.154H129.833c-9.25,0-11.103,4.511-11.28,7.709
		c4.838,46.179,52.503,83.163,112.901,88.069v203.143c-0.027,2.453-0.563,10.812-6.251,16.572L194.67,585.54
		c-2.362,2.599-5.815,7.414,1.59,7.414h97.523c7.224,0,3.961-4.598,1.626-7.159l-1.59-1.617l-0.027-0.037l-28.103-28.438l0,0
		c-6.097-6.16-7.178-13.266-7.333-16.473v-204.06c15.973-1.264,30.992-4.834,44.675-10.158v25.122v36.099v192.921
		c0.073,3.443,1.508,15.664,18.481,15.664h131.872c19.726,0,22.569-12.748,22.879-18.418v-338.19
		C476.246,204.441,456.803,175.321,428.581,161.088L428.581,161.088z"/>
</g>
<g>
</g>
<g>
</g>
<g>
</g>
<g>
</g>
<g>
</g>
<g>
</g>
<g>
</g>
<g>
</g>
<g>
</g>
<g>
</g>
<g>
</g>
<g>
</g>
<g>
</g>
<g>
</g>
<g>
</g>
</svg>
