<?xml version="1.0" encoding="utf-8"?>
<!-- Generator: Adobe Illustrator 22.0.0, SVG Export Plug-In . SVG Version: 6.00 Build 0)  -->
<svg version="1.1" id="Capa_1" xmlns="http://www.w3.org/2000/svg" xmlns:xlink="http://www.w3.org/1999/xlink" x="0px" y="0px"
	 viewBox="0 0 251.1 245.7" style="enable-background:new 0 0 251.1 245.7;" xml:space="preserve">
<style type="text/css">
	.st0{fill:#0B1C26;}
	.st1{fill:url(#SVGID_1_);}
	.st2{fill:url(#SVGID_2_);}
	.st3{fill:url(#SVGID_3_);}
	.st4{fill:url(#SVGID_4_);}
	.st5{fill:url(#SVGID_5_);}
	.st6{fill:url(#SVGID_6_);}
	.st7{fill:url(#SVGID_7_);}
	.st8{fill:url(#SVGID_8_);}
	.st9{fill:url(#SVGID_9_);}
	.st10{fill:url(#SVGID_10_);}
	.st11{fill:url(#SVGID_11_);}
	.st12{fill:url(#SVGID_12_);}
	.st13{fill:url(#SVGID_13_);}
	.st14{fill:url(#SVGID_14_);}
	.st15{fill:url(#SVGID_15_);}
	.st16{fill:url(#SVGID_16_);}
	.st17{fill:url(#SVGID_17_);}
	.st18{fill:url(#SVGID_18_);}
	.st19{fill:url(#SVGID_19_);}
	.st20{fill:url(#SVGID_20_);}
	.st21{fill:url(#SVGID_21_);}
	.st22{fill:url(#SVGID_22_);}
	.st23{fill:url(#SVGID_23_);}
	.st24{fill:url(#SVGID_24_);}
	.st25{fill:url(#SVGID_25_);}
	.st26{fill:url(#SVGID_26_);}
	.st27{fill:#F3F3FF;}
	.st28{fill:url(#SVGID_27_);}
	.st29{fill:url(#SVGID_28_);}
	.st30{fill:url(#SVGID_29_);}
	.st31{fill:url(#SVGID_30_);}
	.st32{fill:url(#SVGID_31_);}
	.st33{fill:url(#SVGID_32_);}
	.st34{fill:url(#SVGID_33_);}
	.st35{fill:url(#SVGID_34_);}
	.st36{fill:url(#SVGID_35_);}
	.st37{fill:url(#SVGID_36_);}
	.st38{fill:url(#SVGID_37_);}
	.st39{fill:url(#SVGID_38_);}
	.st40{fill:url(#SVGID_39_);}
	.st41{fill:url(#SVGID_40_);}
	.st42{fill:url(#SVGID_41_);}
	.st43{fill:url(#SVGID_42_);}
	.st44{fill:url(#SVGID_43_);}
	.st45{fill:url(#SVGID_44_);}
	.st46{fill:url(#SVGID_45_);}
	.st47{fill:url(#SVGID_46_);}
	.st48{fill:url(#SVGID_47_);}
	.st49{fill:url(#SVGID_48_);}
	.st50{fill:url(#SVGID_49_);}
	.st51{fill:url(#SVGID_50_);}
</style>
<circle class="st0" cx="124.4" cy="123.8" r="121.1"/>
<radialGradient id="SVGID_1_" cx="124.4474" cy="123.8272" r="121.1318" gradientUnits="userSpaceOnUse">
	<stop  offset="0" style="stop-color:#27363F;stop-opacity:0.1"/>
	<stop  offset="0.424" style="stop-color:#1A262F;stop-opacity:0.4816"/>
	<stop  offset="1" style="stop-color:#0B151E"/>
</radialGradient>
<circle class="st1" cx="124.4" cy="123.8" r="121.1"/>
<rect x="-341.4" y="26" class="st0" width="249.1" height="249.1"/>
<radialGradient id="SVGID_2_" cx="-214.8887" cy="149.593" r="124.5344" gradientUnits="userSpaceOnUse">
	<stop  offset="0" style="stop-color:#27363F;stop-opacity:0.1"/>
	<stop  offset="0.424" style="stop-color:#1A262F;stop-opacity:0.4816"/>
	<stop  offset="1" style="stop-color:#0B151E"/>
</radialGradient>
<rect x="-339.4" y="25.1" class="st2" width="249.1" height="249.1"/>
<g>
	<g id="ojos_19_">
		<g>
			<g>
				<g>
					<linearGradient id="SVGID_3_" gradientUnits="userSpaceOnUse" x1="-212.5887" y1="153.6732" x2="-192.0212" y2="153.6732">
						<stop  offset="0" style="stop-color:#F3F3FF"/>
						<stop  offset="0.1292" style="stop-color:#E2E2EF"/>
						<stop  offset="0.2878" style="stop-color:#F3F3FF"/>
						<stop  offset="0.4484" style="stop-color:#C4C4D0"/>
						<stop  offset="0.5443" style="stop-color:#E2E2EE"/>
						<stop  offset="0.6146" style="stop-color:#F3F3FF"/>
						<stop  offset="0.7472" style="stop-color:#EAEAF7"/>
						<stop  offset="0.9118" style="stop-color:#C4C4D0"/>
						<stop  offset="0.9472" style="stop-color:#D3D3E0"/>
						<stop  offset="0.9944" style="stop-color:#E4E4F1"/>
					</linearGradient>
					<path class="st3" d="M-192,142.1c-0.2,3-0.5,5.7-1.5,8.2c-0.8,2.1-1.9,3.9-3.4,5.7c0,0,0,0,0,0c-0.4,0.5-0.9,1-1.4,1.5
						c-0.2,0.2-0.4,0.3-0.5,0.5c-2.4,2.3-4.9,4.5-7.5,6.6c-1.1,0.9-2.4,2.1-2.7,3c-2.7,6.6-3.3,28.4-3.3,28.4s-0.3-23.8-0.1-31.7
						c0-1.3,0.3-3.5,0.4-5.2c0.4-3.6,1.6-6.6,4.4-8.7c2.1-1.6,4.1-3.4,6-5.4c1.9-1.9,3.4-4.1,4-6.8c0,0,0-0.1,0-0.1
						c0.3-1.1,0.4-2.3,0.3-3.5c0-0.1,0-0.2,0-0.3c-0.1-2.1-0.3-4.1-0.6-6.2c-0.9-5.8-2.5-11.4-4.4-16.8c0.5,0.3,0.9,0.6,1.4,0.9
						c0.1,0.1,0.2,0.2,0.3,0.2c0,0,0,0,0.1,0c0.1,0.1,0.2,0.2,0.3,0.3c0,0,0.1,0.1,0.1,0.1c0.1,0.1,0.2,0.1,0.3,0.2
						c0.1,0,0.1,0.1,0.2,0.1c0.1,0.1,0.1,0.1,0.2,0.2c0.1,0.1,0.2,0.2,0.3,0.3c0,0,0,0,0,0c0.1,0.1,0.2,0.2,0.3,0.2
						c0.1,0.1,0.1,0.1,0.2,0.2c0.1,0.1,0.2,0.1,0.2,0.2c0,0,0.1,0,0.1,0.1c0.1,0.1,0.2,0.2,0.3,0.3c0,0,0.1,0.1,0.1,0.1
						c0.1,0.1,0.2,0.2,0.3,0.3c0.1,0.1,0.2,0.2,0.3,0.3c0,0,0.1,0.1,0.1,0.1c0.1,0.1,0.2,0.2,0.3,0.3c0.2,0.2,0.5,0.5,0.7,0.7
						c0.1,0.4,0.2,0.8,0.3,1.2c1.2,4.2,2.1,8.4,2.8,12.7c0.4,2.7,0.6,5.4,0.8,8.1c0,0.2,0,0.3,0,0.5C-192,140-192,141-192,142.1z"/>
				</g>
			</g>
			<g>
				<g>
					<linearGradient id="SVGID_4_" gradientUnits="userSpaceOnUse" x1="-218.0179" y1="167.1609" x2="-218.0127" y2="167.1609">
						<stop  offset="0" style="stop-color:#F3F3FF"/>
						<stop  offset="0.1292" style="stop-color:#E2E2EF"/>
						<stop  offset="0.2878" style="stop-color:#F3F3FF"/>
						<stop  offset="0.4484" style="stop-color:#C4C4D0"/>
						<stop  offset="0.5443" style="stop-color:#E2E2EE"/>
						<stop  offset="0.6146" style="stop-color:#F3F3FF"/>
						<stop  offset="0.7472" style="stop-color:#EAEAF7"/>
						<stop  offset="0.9118" style="stop-color:#C4C4D0"/>
						<stop  offset="0.9472" style="stop-color:#D3D3E0"/>
						<stop  offset="0.9944" style="stop-color:#E4E4F1"/>
					</linearGradient>
					<path class="st4" d="M-218,168l0-1.6C-218,166.9-218,167.4-218,168z"/>
				</g>
			</g>
			<g>
				<g>
					<g>
						<linearGradient id="SVGID_5_" gradientUnits="userSpaceOnUse" x1="-238.3448" y1="153.3281" x2="-218.0152" y2="153.3281">
							<stop  offset="0" style="stop-color:#F3F3FF"/>
							<stop  offset="0.1292" style="stop-color:#E2E2EF"/>
							<stop  offset="0.2878" style="stop-color:#F3F3FF"/>
							<stop  offset="0.4484" style="stop-color:#C4C4D0"/>
							<stop  offset="0.5443" style="stop-color:#E2E2EE"/>
							<stop  offset="0.6146" style="stop-color:#F3F3FF"/>
							<stop  offset="0.7472" style="stop-color:#EAEAF7"/>
							<stop  offset="0.9118" style="stop-color:#C4C4D0"/>
							<stop  offset="0.9472" style="stop-color:#D3D3E0"/>
							<stop  offset="0.9944" style="stop-color:#E4E4F1"/>
						</linearGradient>
						<path class="st5" d="M-218,166.3l0,1.6l0,28.1c0,0-0.5-22.1-3.4-28.7c-0.4-0.9-1.5-1.9-2.5-2.7c-2.6-2.1-5.1-4.3-7.5-6.6
							c-0.2-0.2-0.4-0.3-0.5-0.5c-0.5-0.5-1-1-1.4-1.5c0,0,0,0,0,0c-1.5-1.7-2.6-3.6-3.4-5.7c-0.9-2.3-1.4-7.5-1.4-7.5
							s-0.2-2.6-0.1-4c0-0.2,0-0.3,0-0.5c0.1-2.7,0.4-5.4,0.8-8.1c0.6-4.3,1.6-8.6,2.8-12.7c0.2-0.8,0.5-1.7,0.7-2.5
							c1.9-1.7,3.9-3.2,6.1-4.4c-2,5.7-3.7,11.4-4.6,17.5c-0.3,2-0.5,4.1-0.6,6.2c0,0.1,0,0.2,0,0.3c-0.1,1.3,0.1,2.4,0.3,3.5
							c0,0,0,0.1,0,0.1c0.6,2.6,2.1,4.9,4,6.8c1.9,1.9,3.9,3.7,6,5.4c2.7,2.1,4,5.1,4.4,8.7c0.2,1.7,0.3,3.4,0.3,5.2
							C-218,165-218,165.7-218,166.3z"/>
					</g>
				</g>
			</g>
		</g>
	</g>
	<g id="lineas_en_la_oreja_10_">
		<g>
			<linearGradient id="SVGID_6_" gradientUnits="userSpaceOnUse" x1="-190.1945" y1="68.7192" x2="-184.4499" y2="68.7192">
				<stop  offset="0" style="stop-color:#F3F3FF"/>
				<stop  offset="0.1292" style="stop-color:#E2E2EF"/>
				<stop  offset="0.2878" style="stop-color:#F3F3FF"/>
				<stop  offset="0.4484" style="stop-color:#C4C4D0"/>
				<stop  offset="0.5443" style="stop-color:#E2E2EE"/>
				<stop  offset="0.6146" style="stop-color:#F3F3FF"/>
				<stop  offset="0.7472" style="stop-color:#EAEAF7"/>
				<stop  offset="0.9118" style="stop-color:#C4C4D0"/>
				<stop  offset="0.9472" style="stop-color:#D3D3E0"/>
				<stop  offset="0.9944" style="stop-color:#E4E4F1"/>
			</linearGradient>
			<path class="st6" d="M-186.1,64.9l1.7-0.5c-0.1-0.1-0.1-0.3-0.2-0.4l-5.6,1.5c0,0.1,0.1,0.3,0.1,0.4l3.5-0.9l-1.7,6.3l-0.7-0.8
				c0.1,0.3,0.1,0.5,0.2,0.8l0.4,0.4c0,0,0,0,0,0l-0.2,0.7c0.1,0.3,0.1,0.6,0.2,0.9L-186.1,64.9C-186.1,64.9-186.1,64.9-186.1,64.9z
				"/>
			<linearGradient id="SVGID_7_" gradientUnits="userSpaceOnUse" x1="-193.4897" y1="52.3604" x2="-189.9567" y2="52.3604">
				<stop  offset="0" style="stop-color:#F3F3FF"/>
				<stop  offset="0.1292" style="stop-color:#E2E2EF"/>
				<stop  offset="0.2878" style="stop-color:#F3F3FF"/>
				<stop  offset="0.4484" style="stop-color:#C4C4D0"/>
				<stop  offset="0.5443" style="stop-color:#E2E2EE"/>
				<stop  offset="0.6146" style="stop-color:#F3F3FF"/>
				<stop  offset="0.7472" style="stop-color:#EAEAF7"/>
				<stop  offset="0.9118" style="stop-color:#C4C4D0"/>
				<stop  offset="0.9472" style="stop-color:#D3D3E0"/>
				<stop  offset="0.9944" style="stop-color:#E4E4F1"/>
			</linearGradient>
			<path class="st7" d="M-193.2,53.3l0.2-0.6c0,0,0,0,0,0l3.1-0.8c-0.1-0.1-0.1-0.3-0.2-0.4l-3.3,0.9
				C-193.4,52.7-193.3,53-193.2,53.3z"/>
			<linearGradient id="SVGID_8_" gradientUnits="userSpaceOnUse" x1="-194.6552" y1="49.5191" x2="-190.3404" y2="49.5191">
				<stop  offset="0" style="stop-color:#F3F3FF"/>
				<stop  offset="0.1292" style="stop-color:#E2E2EF"/>
				<stop  offset="0.2878" style="stop-color:#F3F3FF"/>
				<stop  offset="0.4484" style="stop-color:#C4C4D0"/>
				<stop  offset="0.5443" style="stop-color:#E2E2EE"/>
				<stop  offset="0.6146" style="stop-color:#F3F3FF"/>
				<stop  offset="0.7472" style="stop-color:#EAEAF7"/>
				<stop  offset="0.9118" style="stop-color:#C4C4D0"/>
				<stop  offset="0.9472" style="stop-color:#D3D3E0"/>
				<stop  offset="0.9944" style="stop-color:#E4E4F1"/>
			</linearGradient>
			<path class="st8" d="M-190.7,50.3l-4-2.3c0.1,0.2,0.1,0.4,0.2,0.6l4.1,2.4C-190.5,50.8-190.6,50.6-190.7,50.3z"/>
			<linearGradient id="SVGID_9_" gradientUnits="userSpaceOnUse" x1="-183.0731" y1="136.1632" x2="-182.9243" y2="136.1632">
				<stop  offset="0" style="stop-color:#F3F3FF"/>
				<stop  offset="0.1292" style="stop-color:#E2E2EF"/>
				<stop  offset="0.2878" style="stop-color:#F3F3FF"/>
				<stop  offset="0.4484" style="stop-color:#C4C4D0"/>
				<stop  offset="0.5443" style="stop-color:#E2E2EE"/>
				<stop  offset="0.6146" style="stop-color:#F3F3FF"/>
				<stop  offset="0.7472" style="stop-color:#EAEAF7"/>
				<stop  offset="0.9118" style="stop-color:#C4C4D0"/>
				<stop  offset="0.9472" style="stop-color:#D3D3E0"/>
				<stop  offset="0.9944" style="stop-color:#E4E4F1"/>
			</linearGradient>
			<path class="st9" d="M-183,136c0,0.1,0,0.2,0,0.2c0.1-0.1,0.1-0.1,0.1-0.2L-183,136z"/>
			<linearGradient id="SVGID_10_" gradientUnits="userSpaceOnUse" x1="-191.3956" y1="57.4526" x2="-185.4318" y2="57.4526">
				<stop  offset="0" style="stop-color:#F3F3FF"/>
				<stop  offset="0.1292" style="stop-color:#E2E2EF"/>
				<stop  offset="0.2878" style="stop-color:#F3F3FF"/>
				<stop  offset="0.4484" style="stop-color:#C4C4D0"/>
				<stop  offset="0.5443" style="stop-color:#E2E2EE"/>
				<stop  offset="0.6146" style="stop-color:#F3F3FF"/>
				<stop  offset="0.7472" style="stop-color:#EAEAF7"/>
				<stop  offset="0.9118" style="stop-color:#C4C4D0"/>
				<stop  offset="0.9472" style="stop-color:#D3D3E0"/>
				<stop  offset="0.9944" style="stop-color:#E4E4F1"/>
			</linearGradient>
			<path class="st10" d="M-189,53.8c-0.1-0.3-0.3-0.6-0.4-1v6.5l-1.9,1.1c0,0.2,0.1,0.3,0.1,0.5l2-1.2l3.8,2.2
				c-0.1-0.2-0.2-0.5-0.3-0.7l-3.3-1.9V53.8z"/>
			<linearGradient id="SVGID_11_" gradientUnits="userSpaceOnUse" x1="-187.6123" y1="100.3611" x2="-171.4309" y2="100.3611">
				<stop  offset="0" style="stop-color:#F3F3FF"/>
				<stop  offset="0.1292" style="stop-color:#E2E2EF"/>
				<stop  offset="0.2878" style="stop-color:#F3F3FF"/>
				<stop  offset="0.4484" style="stop-color:#C4C4D0"/>
				<stop  offset="0.5443" style="stop-color:#E2E2EE"/>
				<stop  offset="0.6146" style="stop-color:#F3F3FF"/>
				<stop  offset="0.7472" style="stop-color:#EAEAF7"/>
				<stop  offset="0.9118" style="stop-color:#C4C4D0"/>
				<stop  offset="0.9472" style="stop-color:#D3D3E0"/>
				<stop  offset="0.9944" style="stop-color:#E4E4F1"/>
			</linearGradient>
			<path class="st11" d="M-172.8,115.3c0-0.2,0.1-0.4,0.2-0.5c0,0,0,0,0,0l0.1-0.3l0-0.2c0.1-0.4,0.1-0.7,0.2-1.1l-6.9,1.9h0l-0.2,0
				c0,0,0,0,0,0l0,0h0l-2.6-2.6l6.6-3.9l3.5,2c0-0.2,0-0.3,0.1-0.5l-3.3-2v-7.5l3.7,3.8c0-0.2,0-0.4,0-0.7l-0.5-0.6l0.5-0.1
				c0-0.2,0-0.3,0-0.5l-0.8,0.2c0,0,0,0,0,0l-2.6-2.7l2.8-1.6c0-0.2-0.1-0.3-0.1-0.5l-2.7,1.6l1.6-5.9c-0.1-0.3-0.2-0.5-0.2-0.8
				l-0.7,2.7l-4.5-4.6l4.3-1.2c0-0.1-0.1-0.3-0.1-0.4l-4.5,1.2c0,0,0,0,0,0l-2.6-2.7l4.1-2.4h0l1.3-0.8c-0.1-0.1-0.1-0.3-0.2-0.4
				l-5.2,3.1l0.5-1.9h0l2.1-8.1c-0.1-0.3-0.2-0.6-0.3-0.8l-6.6,1.8c0,0,0,0,0,0l-1.4-1.4c0.1,0.3,0.1,0.5,0.2,0.8l6,6c0,0,0,0,0,0
				l-1,3.7l-3.5-2.1c0,0.2,0.1,0.4,0.1,0.6l3,1.7l-2.5,0.7c0,0.1,0.1,0.3,0.1,0.4l2.8-0.8V96l-1.5,0.9c0,0.2,0,0.3,0.1,0.5l1.7-1
				l6.4,3.7l-7.4,2c0,0.1,0,0.3,0.1,0.4l3.6-1l-1.7,6.3l-1.5-1.5c0,0.2,0,0.5,0.1,0.7l1.3,1.3c0,0,0,0,0,0l-0.9,3.4
				c0.1,1.6,0.2,3.1,0.3,4.6v-3.5l7.5,7.6c0,0,0,0,0,0l-0.9,3.5C-174.3,121.3-173.4,118.4-172.8,115.3z M-185.9,78.9l6.2-1.7
				l-1.7,6.3L-185.9,78.9z M-182.1,96v-7.5l7.5,7.6c0,0,0,0,0,0l-1,3.7L-182.1,96z M-179.2,101.4
				C-179.2,101.4-179.2,101.4-179.2,101.4l3.6-1v7.7l-6.4,3.7L-179.2,101.4z M-178.9,115.4l6.2-1.7l-0.3,1.3h0l-1.3,5L-178.9,115.4z
				"/>
			<linearGradient id="SVGID_12_" gradientUnits="userSpaceOnUse" x1="-182.4071" y1="127.8002" x2="-175.5296" y2="127.8002">
				<stop  offset="0" style="stop-color:#F3F3FF"/>
				<stop  offset="0.1292" style="stop-color:#E2E2EF"/>
				<stop  offset="0.2878" style="stop-color:#F3F3FF"/>
				<stop  offset="0.4484" style="stop-color:#C4C4D0"/>
				<stop  offset="0.5443" style="stop-color:#E2E2EE"/>
				<stop  offset="0.6146" style="stop-color:#F3F3FF"/>
				<stop  offset="0.7472" style="stop-color:#EAEAF7"/>
				<stop  offset="0.9118" style="stop-color:#C4C4D0"/>
				<stop  offset="0.9472" style="stop-color:#D3D3E0"/>
				<stop  offset="0.9944" style="stop-color:#E4E4F1"/>
			</linearGradient>
			<path class="st12" d="M-181.4,134.3l2.2-8.5c0,0,0,0,0,0l3.4-0.9c0.1-0.2,0.2-0.5,0.3-0.7l-6.4-3.8c0,0.2,0,0.3,0,0.5l6,3.5
				l-6.1,1.6c0,0.2,0,0.3,0,0.5l2.3-0.6l-1.7,6.3l-1-1c0,0.2,0,0.4-0.1,0.6l0.9,0.9c0,0,0,0,0,0l-0.6,2.4
				C-181.9,134.9-181.7,134.6-181.4,134.3z"/>
			<linearGradient id="SVGID_13_" gradientUnits="userSpaceOnUse" x1="-196.4175" y1="42.0673" x2="-195.9748" y2="42.0673">
				<stop  offset="0" style="stop-color:#F3F3FF"/>
				<stop  offset="0.1292" style="stop-color:#E2E2EF"/>
				<stop  offset="0.2878" style="stop-color:#F3F3FF"/>
				<stop  offset="0.4484" style="stop-color:#C4C4D0"/>
				<stop  offset="0.5443" style="stop-color:#E2E2EE"/>
				<stop  offset="0.6146" style="stop-color:#F3F3FF"/>
				<stop  offset="0.7472" style="stop-color:#EAEAF7"/>
				<stop  offset="0.9118" style="stop-color:#C4C4D0"/>
				<stop  offset="0.9472" style="stop-color:#D3D3E0"/>
				<stop  offset="0.9944" style="stop-color:#E4E4F1"/>
			</linearGradient>
			<path class="st13" d="M-196.4,41.7c0.1,0.5,0.3,1,0.4,1.6v-2c-0.1-0.1-0.3-0.3-0.4-0.4V41.7z"/>
			<linearGradient id="SVGID_14_" gradientUnits="userSpaceOnUse" x1="-188.0933" y1="72.2701" x2="-181.2045" y2="72.2701">
				<stop  offset="0" style="stop-color:#F3F3FF"/>
				<stop  offset="0.1292" style="stop-color:#E2E2EF"/>
				<stop  offset="0.2878" style="stop-color:#F3F3FF"/>
				<stop  offset="0.4484" style="stop-color:#C4C4D0"/>
				<stop  offset="0.5443" style="stop-color:#E2E2EE"/>
				<stop  offset="0.6146" style="stop-color:#F3F3FF"/>
				<stop  offset="0.7472" style="stop-color:#EAEAF7"/>
				<stop  offset="0.9118" style="stop-color:#C4C4D0"/>
				<stop  offset="0.9472" style="stop-color:#D3D3E0"/>
				<stop  offset="0.9944" style="stop-color:#E4E4F1"/>
			</linearGradient>
			<path class="st14" d="M-181.2,72.6c-0.1-0.2-0.2-0.4-0.3-0.7l-0.6-0.4v-1.2c-0.1-0.4-0.3-0.8-0.4-1.1v2.4l-5.6,3.3
				c0,0.2,0.1,0.3,0.1,0.5l5.7-3.3L-181.2,72.6z"/>
		</g>
		<g>
			<linearGradient id="SVGID_15_" gradientUnits="userSpaceOnUse" x1="-245.2897" y1="68.7192" x2="-239.545" y2="68.7192">
				<stop  offset="0" style="stop-color:#F3F3FF"/>
				<stop  offset="0.1292" style="stop-color:#E2E2EF"/>
				<stop  offset="0.2878" style="stop-color:#F3F3FF"/>
				<stop  offset="0.4484" style="stop-color:#C4C4D0"/>
				<stop  offset="0.5443" style="stop-color:#E2E2EE"/>
				<stop  offset="0.6146" style="stop-color:#F3F3FF"/>
				<stop  offset="0.7472" style="stop-color:#EAEAF7"/>
				<stop  offset="0.9118" style="stop-color:#C4C4D0"/>
				<stop  offset="0.9472" style="stop-color:#D3D3E0"/>
				<stop  offset="0.9944" style="stop-color:#E4E4F1"/>
			</linearGradient>
			<path class="st15" d="M-243.6,64.9l-1.7-0.5c0.1-0.1,0.1-0.3,0.2-0.4l5.6,1.5c0,0.1-0.1,0.3-0.1,0.4l-3.5-0.9l1.7,6.3l0.7-0.8
				c-0.1,0.3-0.1,0.5-0.2,0.8l-0.4,0.4c0,0,0,0,0,0l0.2,0.7c-0.1,0.3-0.1,0.6-0.2,0.9L-243.6,64.9
				C-243.6,64.9-243.6,64.9-243.6,64.9z"/>
			<linearGradient id="SVGID_16_" gradientUnits="userSpaceOnUse" x1="-239.7829" y1="52.3604" x2="-236.2498" y2="52.3604">
				<stop  offset="0" style="stop-color:#F3F3FF"/>
				<stop  offset="0.1292" style="stop-color:#E2E2EF"/>
				<stop  offset="0.2878" style="stop-color:#F3F3FF"/>
				<stop  offset="0.4484" style="stop-color:#C4C4D0"/>
				<stop  offset="0.5443" style="stop-color:#E2E2EE"/>
				<stop  offset="0.6146" style="stop-color:#F3F3FF"/>
				<stop  offset="0.7472" style="stop-color:#EAEAF7"/>
				<stop  offset="0.9118" style="stop-color:#C4C4D0"/>
				<stop  offset="0.9472" style="stop-color:#D3D3E0"/>
				<stop  offset="0.9944" style="stop-color:#E4E4F1"/>
			</linearGradient>
			<path class="st16" d="M-236.5,53.3l-0.2-0.6c0,0,0,0,0,0l-3.1-0.8c0.1-0.1,0.1-0.3,0.2-0.4l3.3,0.9
				C-236.3,52.7-236.4,53-236.5,53.3z"/>
			<linearGradient id="SVGID_17_" gradientUnits="userSpaceOnUse" x1="-239.3992" y1="49.5191" x2="-235.0843" y2="49.5191">
				<stop  offset="0" style="stop-color:#F3F3FF"/>
				<stop  offset="0.1292" style="stop-color:#E2E2EF"/>
				<stop  offset="0.2878" style="stop-color:#F3F3FF"/>
				<stop  offset="0.4484" style="stop-color:#C4C4D0"/>
				<stop  offset="0.5443" style="stop-color:#E2E2EE"/>
				<stop  offset="0.6146" style="stop-color:#F3F3FF"/>
				<stop  offset="0.7472" style="stop-color:#EAEAF7"/>
				<stop  offset="0.9118" style="stop-color:#C4C4D0"/>
				<stop  offset="0.9472" style="stop-color:#D3D3E0"/>
				<stop  offset="0.9944" style="stop-color:#E4E4F1"/>
			</linearGradient>
			<path class="st17" d="M-239.1,50.3l4-2.3c-0.1,0.2-0.1,0.4-0.2,0.6l-4.1,2.4C-239.3,50.8-239.2,50.6-239.1,50.3z"/>
			<linearGradient id="SVGID_18_" gradientUnits="userSpaceOnUse" x1="-246.8152" y1="136.1632" x2="-246.6664" y2="136.1632">
				<stop  offset="0" style="stop-color:#F3F3FF"/>
				<stop  offset="0.1292" style="stop-color:#E2E2EF"/>
				<stop  offset="0.2878" style="stop-color:#F3F3FF"/>
				<stop  offset="0.4484" style="stop-color:#C4C4D0"/>
				<stop  offset="0.5443" style="stop-color:#E2E2EE"/>
				<stop  offset="0.6146" style="stop-color:#F3F3FF"/>
				<stop  offset="0.7472" style="stop-color:#EAEAF7"/>
				<stop  offset="0.9118" style="stop-color:#C4C4D0"/>
				<stop  offset="0.9472" style="stop-color:#D3D3E0"/>
				<stop  offset="0.9944" style="stop-color:#E4E4F1"/>
			</linearGradient>
			<path class="st18" d="M-246.7,136c0,0.1,0,0.2,0,0.2c-0.1-0.1-0.1-0.1-0.1-0.2L-246.7,136z"/>
			<linearGradient id="SVGID_19_" gradientUnits="userSpaceOnUse" x1="-244.3077" y1="57.4526" x2="-238.3439" y2="57.4526">
				<stop  offset="0" style="stop-color:#F3F3FF"/>
				<stop  offset="0.1292" style="stop-color:#E2E2EF"/>
				<stop  offset="0.2878" style="stop-color:#F3F3FF"/>
				<stop  offset="0.4484" style="stop-color:#C4C4D0"/>
				<stop  offset="0.5443" style="stop-color:#E2E2EE"/>
				<stop  offset="0.6146" style="stop-color:#F3F3FF"/>
				<stop  offset="0.7472" style="stop-color:#EAEAF7"/>
				<stop  offset="0.9118" style="stop-color:#C4C4D0"/>
				<stop  offset="0.9472" style="stop-color:#D3D3E0"/>
				<stop  offset="0.9944" style="stop-color:#E4E4F1"/>
			</linearGradient>
			<path class="st19" d="M-240.7,53.8c0.1-0.3,0.3-0.6,0.4-1v6.5l1.9,1.1c0,0.2-0.1,0.3-0.1,0.5l-2-1.2l-3.8,2.2
				c0.1-0.2,0.2-0.5,0.3-0.7l3.3-1.9V53.8z"/>
			<linearGradient id="SVGID_20_" gradientUnits="userSpaceOnUse" x1="-258.3086" y1="100.3611" x2="-242.1272" y2="100.3611">
				<stop  offset="0" style="stop-color:#F3F3FF"/>
				<stop  offset="0.1292" style="stop-color:#E2E2EF"/>
				<stop  offset="0.2878" style="stop-color:#F3F3FF"/>
				<stop  offset="0.4484" style="stop-color:#C4C4D0"/>
				<stop  offset="0.5443" style="stop-color:#E2E2EE"/>
				<stop  offset="0.6146" style="stop-color:#F3F3FF"/>
				<stop  offset="0.7472" style="stop-color:#EAEAF7"/>
				<stop  offset="0.9118" style="stop-color:#C4C4D0"/>
				<stop  offset="0.9472" style="stop-color:#D3D3E0"/>
				<stop  offset="0.9944" style="stop-color:#E4E4F1"/>
			</linearGradient>
			<path class="st20" d="M-254.3,124l-0.9-3.5c0,0,0,0,0,0l7.5-7.6v3.5c0.1-1.5,0.2-3,0.3-4.6l-0.9-3.4c0,0,0,0,0,0l1.3-1.3
				c0-0.2,0-0.5,0.1-0.7l-1.5,1.5l-1.7-6.3l3.6,1c0-0.1,0-0.3,0.1-0.4l-7.4-2l6.4-3.7l1.7,1c0-0.2,0-0.3,0.1-0.5l-1.5-0.9v-7.7
				l2.8,0.8c0-0.1,0.1-0.3,0.1-0.4l-2.5-0.7l3-1.7c0-0.2,0.1-0.4,0.1-0.6l-3.5,2.1l-1-3.7c0,0,0,0,0,0l6-6c0.1-0.3,0.1-0.5,0.2-0.8
				l-1.4,1.4c0,0,0,0,0,0l-6.6-1.8c-0.1,0.3-0.2,0.6-0.3,0.8l2.1,8.1h0l0.5,1.9l-5.2-3.1c-0.1,0.1-0.1,0.3-0.2,0.4l1.3,0.8h0
				l4.1,2.4l-2.6,2.7c0,0,0,0,0,0l-4.5-1.2c0,0.1-0.1,0.3-0.1,0.4l4.3,1.2l-4.5,4.6L-256,93c-0.1,0.3-0.2,0.5-0.2,0.8l1.6,5.9
				l-2.7-1.6c0,0.2-0.1,0.3-0.1,0.5l2.8,1.6l-2.6,2.7c0,0,0,0,0,0l-0.8-0.2c0,0.2,0,0.3,0,0.5l0.5,0.1l-0.5,0.6c0,0.2,0,0.4,0,0.7
				l3.7-3.8v7.5l-3.3,2c0,0.2,0,0.3,0.1,0.5l3.5-2l6.6,3.9l-2.6,2.6h0l0,0c0,0,0,0,0,0l-0.2,0h0l-6.9-1.9c0.1,0.4,0.1,0.7,0.2,1.1
				l0,0.2l0.1,0.3c0,0,0,0,0,0c0.1,0.1,0.2,0.3,0.2,0.5C-256.3,118.4-255.4,121.3-254.3,124z M-248.4,83.5l-1.7-6.3l6.2,1.7
				L-248.4,83.5z M-254.2,99.8l-1-3.7c0,0,0,0,0,0l7.5-7.6V96L-254.2,99.8z M-247.8,111.9l-6.4-3.7v-7.7l3.6,1c0,0,0,0,0,0
				L-247.8,111.9z M-255.3,120l-1.3-5h0l-0.3-1.3l6.2,1.7L-255.3,120z"/>
			<linearGradient id="SVGID_21_" gradientUnits="userSpaceOnUse" x1="-254.2099" y1="127.8002" x2="-247.3324" y2="127.8002">
				<stop  offset="0" style="stop-color:#F3F3FF"/>
				<stop  offset="0.1292" style="stop-color:#E2E2EF"/>
				<stop  offset="0.2878" style="stop-color:#F3F3FF"/>
				<stop  offset="0.4484" style="stop-color:#C4C4D0"/>
				<stop  offset="0.5443" style="stop-color:#E2E2EE"/>
				<stop  offset="0.6146" style="stop-color:#F3F3FF"/>
				<stop  offset="0.7472" style="stop-color:#EAEAF7"/>
				<stop  offset="0.9118" style="stop-color:#C4C4D0"/>
				<stop  offset="0.9472" style="stop-color:#D3D3E0"/>
				<stop  offset="0.9944" style="stop-color:#E4E4F1"/>
			</linearGradient>
			<path class="st21" d="M-248.3,134.3l-2.2-8.5c0,0,0,0,0,0l-3.4-0.9c-0.1-0.2-0.2-0.5-0.3-0.7l6.4-3.8c0,0.2,0,0.3,0,0.5l-6,3.5
				l6.1,1.6c0,0.2,0,0.3,0,0.5l-2.3-0.6l1.7,6.3l1-1c0,0.2,0,0.4,0.1,0.6l-0.9,0.9c0,0,0,0,0,0l0.6,2.4
				C-247.8,134.9-248.1,134.6-248.3,134.3z"/>
			<linearGradient id="SVGID_22_" gradientUnits="userSpaceOnUse" x1="-233.7648" y1="42.0673" x2="-233.3221" y2="42.0673">
				<stop  offset="0" style="stop-color:#F3F3FF"/>
				<stop  offset="0.1292" style="stop-color:#E2E2EF"/>
				<stop  offset="0.2878" style="stop-color:#F3F3FF"/>
				<stop  offset="0.4484" style="stop-color:#C4C4D0"/>
				<stop  offset="0.5443" style="stop-color:#E2E2EE"/>
				<stop  offset="0.6146" style="stop-color:#F3F3FF"/>
				<stop  offset="0.7472" style="stop-color:#EAEAF7"/>
				<stop  offset="0.9118" style="stop-color:#C4C4D0"/>
				<stop  offset="0.9472" style="stop-color:#D3D3E0"/>
				<stop  offset="0.9944" style="stop-color:#E4E4F1"/>
			</linearGradient>
			<path class="st22" d="M-233.3,41.7c-0.1,0.5-0.3,1-0.4,1.6v-2c0.1-0.1,0.3-0.3,0.4-0.4V41.7z"/>
			<linearGradient id="SVGID_23_" gradientUnits="userSpaceOnUse" x1="-248.535" y1="72.2701" x2="-241.6462" y2="72.2701">
				<stop  offset="0" style="stop-color:#F3F3FF"/>
				<stop  offset="0.1292" style="stop-color:#E2E2EF"/>
				<stop  offset="0.2878" style="stop-color:#F3F3FF"/>
				<stop  offset="0.4484" style="stop-color:#C4C4D0"/>
				<stop  offset="0.5443" style="stop-color:#E2E2EE"/>
				<stop  offset="0.6146" style="stop-color:#F3F3FF"/>
				<stop  offset="0.7472" style="stop-color:#EAEAF7"/>
				<stop  offset="0.9118" style="stop-color:#C4C4D0"/>
				<stop  offset="0.9472" style="stop-color:#D3D3E0"/>
				<stop  offset="0.9944" style="stop-color:#E4E4F1"/>
			</linearGradient>
			<path class="st23" d="M-248.5,72.6c0.1-0.2,0.2-0.4,0.3-0.7l0.6-0.4v-1.2c0.1-0.4,0.3-0.8,0.4-1.1v2.4l5.6,3.3
				c0,0.2-0.1,0.3-0.1,0.5l-5.7-3.3L-248.5,72.6z"/>
		</g>
	</g>
	<g>
		<linearGradient id="SVGID_24_" gradientUnits="userSpaceOnUse" x1="-227.938" y1="209.9417" x2="-227.8728" y2="209.9417">
			<stop  offset="0" style="stop-color:#F3F3FF"/>
			<stop  offset="0.1292" style="stop-color:#E2E2EF"/>
			<stop  offset="0.2878" style="stop-color:#F3F3FF"/>
			<stop  offset="0.4484" style="stop-color:#C4C4D0"/>
			<stop  offset="0.5443" style="stop-color:#E2E2EE"/>
			<stop  offset="0.6146" style="stop-color:#F3F3FF"/>
			<stop  offset="0.7472" style="stop-color:#EAEAF7"/>
			<stop  offset="0.9118" style="stop-color:#C4C4D0"/>
			<stop  offset="0.9472" style="stop-color:#D3D3E0"/>
			<stop  offset="0.9944" style="stop-color:#E4E4F1"/>
		</linearGradient>
		<path class="st24" d="M-227.9,210L-227.9,210l0-0.2L-227.9,210z"/>
		<linearGradient id="SVGID_25_" gradientUnits="userSpaceOnUse" x1="-228.2214" y1="210.0409" x2="-227.4789" y2="210.0409">
			<stop  offset="0" style="stop-color:#F3F3FF"/>
			<stop  offset="0.1292" style="stop-color:#E2E2EF"/>
			<stop  offset="0.2878" style="stop-color:#F3F3FF"/>
			<stop  offset="0.4484" style="stop-color:#C4C4D0"/>
			<stop  offset="0.5443" style="stop-color:#E2E2EE"/>
			<stop  offset="0.6146" style="stop-color:#F3F3FF"/>
			<stop  offset="0.7472" style="stop-color:#EAEAF7"/>
			<stop  offset="0.9118" style="stop-color:#C4C4D0"/>
			<stop  offset="0.9472" style="stop-color:#D3D3E0"/>
			<stop  offset="0.9944" style="stop-color:#E4E4F1"/>
		</linearGradient>
		<polygon class="st25" points="-227.5,210.3 -228.2,210.3 -228.2,209.9 -227.9,209.8 -227.9,209.8 -227.9,209.8 -227.9,209.8 
			-227.7,209.8 		"/>
	</g>
	<g>
		<linearGradient id="SVGID_26_" gradientUnits="userSpaceOnUse" x1="-259.8586" y1="128.0178" x2="-169.891" y2="128.0178">
			<stop  offset="0" style="stop-color:#F3F3FF"/>
			<stop  offset="0.1292" style="stop-color:#E2E2EF"/>
			<stop  offset="0.2878" style="stop-color:#F3F3FF"/>
			<stop  offset="0.4484" style="stop-color:#C4C4D0"/>
			<stop  offset="0.5443" style="stop-color:#E2E2EE"/>
			<stop  offset="0.6146" style="stop-color:#F3F3FF"/>
			<stop  offset="0.7472" style="stop-color:#EAEAF7"/>
			<stop  offset="0.9118" style="stop-color:#C4C4D0"/>
			<stop  offset="0.9472" style="stop-color:#D3D3E0"/>
			<stop  offset="0.9944" style="stop-color:#E4E4F1"/>
		</linearGradient>
		<path class="st26" d="M-170.1,102c-0.6-5.7-2.5-11-4.4-16c-0.8-1.9-1.5-3.9-2.2-5.8l-0.2-0.5c-4.8-12.4-9.3-24.2-15.7-36
			c-1-1.9-2.6-3.5-4.3-4.3c-0.3-0.2-0.6-0.3-0.9-0.4l-0.5-0.2l-0.4,0.4c0,0-0.1,0.1-0.1,0.1l0,0.1c0,0,0,0,0,0
			c-1.4,1.5-2,3.4-2.4,5.1c0,0,0,0.1,0,0.1l0,0c0,0.1-0.1,0.3-0.1,0.4c-1.6,5.7-2,11.4-2.5,16.9l0,0c-0.1,0.9-0.1,1.8-0.2,2.8
			c-1.3,14.4-1.7,28.5-1.9,41.6c0,0.6,0,1.2,0,1.9c-2.9-1-5.8-1.6-8.9-1.6c-3,0-6,0.5-8.8,1.5c0-0.6,0-1.3,0-1.9
			c-0.2-13.1-0.6-27.2-1.9-41.6c-0.1-0.9-0.2-1.9-0.2-2.8l0,0c-0.4-5.5-0.9-11.2-2.5-16.9c0-0.1-0.1-0.3-0.1-0.4l0,0
			c0,0,0-0.1,0-0.1c-0.4-1.7-1-3.6-2.4-5.1c0,0,0,0,0-0.1l0,0c0,0,0,0,0,0l0,0c0,0-0.1-0.1-0.1-0.1l-0.4-0.4l-0.5,0.2
			c-0.3,0.1-0.6,0.2-0.9,0.4c-1.7,0.8-3.3,2.4-4.3,4.3c-6.5,11.8-11,23.6-15.7,36l-0.2,0.5c-0.7,1.9-1.5,3.9-2.3,5.9
			c-1.9,5-3.8,10.3-4.4,16c-0.5,4.6,0.2,9.4,1,12.4c1,3.6,2.6,7.9,4.5,11.7c2.4,4.8,5,8.8,7.7,11.6c0.2,0.2,0.4,0.4,0.6,0.6
			c-0.4,2.7-0.7,5.4-0.7,8.1c0,2,0.1,4,0.3,5.9c1.3,10.9,6.2,20.7,13.5,26.9l4.5,30c0,0.1,0,0.3,0.1,0.5l0,0.3l0.1,0.2l0,0.1
			c0,0.1,0,0.1,0,0.2c0.6,2,2.3,3.8,4.7,5c2.3,1.2,5.1,1.9,8.1,1.9c0.1,0,0.2,0,0.3,0c0.1,0,0.2,0,0.3,0c3.1,0,6.1-0.8,8.4-2.1
			c2.4-1.3,4-3.2,4.5-5.2c0.1-0.4,0.3-1.4,0.3-1.6l4.3-29.1c7.1-6,12.1-15.5,13.6-26c0.3-2.3,0.5-4.7,0.5-7c0-2.7-0.2-5.4-0.6-8
			c0.2-0.2,0.4-0.4,0.6-0.6c2.7-2.7,5.3-6.7,7.7-11.6c1.9-3.8,3.5-8.1,4.5-11.7c0.6-2.3,1.2-5.6,1.2-9.1
			C-169.9,104.2-169.9,103.1-170.1,102z M-257,114.1c0-0.1-0.1-0.4-0.1-0.5c-0.4-2.1-1.3-7.3-0.9-11.4c0.7-5.7,2.6-11.1,4.3-15.6
			c0.8-2.1,1.6-4.2,2.4-6.3l0,0c4.8-12.4,9.2-24.1,15.6-35.8c0.5-1,1.2-1.8,1.9-2.5c-2.6,8.8-7.1,25.4-10.4,43
			c-4,21.5-5.1,38.1-3.1,49.4C-251.6,129-255.1,120.5-257,114.1z M-245.2,134.5c0,0.2-0.1,0.3-0.1,0.5c0,0.1,0,0.2-0.1,0.3
			c-2.2-11.1-1.3-28,2.9-50.2c3.4-18.1,8.1-35.1,10.7-44c0.7,1.1,1.2,2.4,1.6,3.8c0,0.1,0,0.1,0.1,0.2c0,0,0,0.1,0,0.1l0,0
			c0,0,0,0,0,0l0,0c1.6,5.6,2,11,2.5,16.7c0.1,1,0.1,1.9,0.2,2.8c1.3,14.3,1.7,28.4,1.9,41.5c0,0.9,0,1.7,0,2.5
			c-0.8,0.4-1.6,0.8-2.4,1.2c-0.2,0.1-0.3,0.2-0.5,0.3l0,0c-0.1,0-0.1,0.1-0.2,0.1c-0.1,0-0.1,0.1-0.2,0.1l-0.1,0
			c-0.5,0.3-0.9,0.6-1.4,0.9c-0.1,0.1-0.3,0.2-0.4,0.3l0,0c0,0,0,0,0,0l0,0c-0.1,0.1-0.2,0.2-0.3,0.2c0,0-0.1,0.1-0.1,0.1
			c-0.1,0.1-0.1,0.1-0.2,0.2l-0.1,0c-0.1,0-0.1,0.1-0.2,0.1l-0.1,0.1c0,0-0.1,0.1-0.1,0.1l0,0c-0.1,0.1-0.2,0.2-0.3,0.3
			c0,0,0,0-0.1,0c-0.1,0.1-0.2,0.2-0.3,0.2c-0.1,0.1-0.1,0.1-0.2,0.2c-0.1,0.1-0.2,0.1-0.2,0.2l0,0c0,0-0.1,0.1-0.1,0.1
			c-0.1,0.1-0.2,0.2-0.3,0.3c0,0-0.1,0.1-0.1,0.1c-0.1,0.1-0.2,0.2-0.3,0.3c-0.1,0.1-0.2,0.2-0.4,0.3c0,0-0.1,0.1-0.1,0.1
			c-0.1,0.1-0.2,0.2-0.3,0.3c-0.3,0.2-0.5,0.5-0.7,0.8c-0.1,0.1-0.3,0.3-0.4,0.4l-0.1,0.1c-0.1,0.1-0.2,0.2-0.2,0.3l0,0c0,0,0,0,0,0
			c-0.1,0.1-0.2,0.3-0.3,0.4c0,0-0.1,0.1-0.1,0.1c-0.1,0.1-0.2,0.2-0.3,0.3c-0.1,0.1-0.2,0.3-0.4,0.4c-0.1,0.2-0.3,0.3-0.4,0.4
			c-0.1,0.1-0.2,0.3-0.4,0.5l0,0c-0.1,0.1-0.2,0.3-0.3,0.4c-0.1,0.1-0.2,0.3-0.3,0.4c0,0,0,0,0,0l0,0c-0.1,0.1-0.2,0.3-0.3,0.4
			c-0.1,0.1-0.2,0.3-0.3,0.4l-0.1,0.1c-0.1,0.2-0.2,0.3-0.3,0.5l0,0c0,0,0,0.1,0,0.1c-0.1,0.1-0.2,0.3-0.2,0.4l-0.1,0.1
			c0,0-0.1,0.1-0.1,0.1l-0.1,0.2c-0.1,0.1-0.2,0.3-0.3,0.4l0,0c0,0.1-0.1,0.1-0.1,0.2l0,0.1c0,0.1-0.1,0.2-0.1,0.2
			c-0.1,0.2-0.2,0.4-0.3,0.6l0,0c-0.1,0.2-0.2,0.3-0.2,0.5c0,0-0.1,0.1-0.1,0.1l0,0c-0.1,0.2-0.2,0.3-0.2,0.5
			c-0.1,0.2-0.2,0.4-0.3,0.5c-0.2,0.4-0.4,0.7-0.5,1.1c-0.1,0.2-0.2,0.4-0.3,0.6l-0.1,0.2c-0.1,0.1-0.1,0.2-0.2,0.4
			c-0.2,0.4-0.3,0.8-0.5,1.2l-0.2,0.5c0,0.1-0.1,0.2-0.1,0.3l0,0.1c0,0.1-0.1,0.2-0.1,0.2l0,0c-0.2,0.6-0.4,1.2-0.6,1.8l-0.1,0.3
			c0,0.1-0.1,0.3-0.1,0.4l-0.1,0.3c-0.1,0.4-0.3,0.9-0.4,1.3C-245.1,134.2-245.1,134.3-245.2,134.5z M-203.9,210.8
			c0,0,0,0.1-0.1,0.1c0,0,0,0.1-0.1,0.1l0,0c0,0,0,0,0,0l0,0c0,0,0,0.1-0.1,0.1l0,0c0,0-0.1,0.1-0.1,0.1c0,0-0.1,0.1-0.1,0.1
			c0,0.1-0.1,0.1-0.1,0.2c0,0-0.1,0.1-0.1,0.1l0,0c0,0-0.1,0.1-0.1,0.1c-0.1,0.1-0.2,0.3-0.4,0.4c0,0-0.1,0.1-0.1,0.1
			c0,0-0.1,0.1-0.1,0.1c0,0-0.1,0.1-0.1,0.1c0,0-0.1,0.1-0.1,0.1c-0.1,0-0.1,0.1-0.2,0.1c-0.1,0.1-0.2,0.1-0.2,0.2l-0.1,0.1
			c0,0-0.1,0.1-0.1,0.1c-0.2,0.2-0.5,0.3-0.7,0.5c0,0-0.1,0-0.1,0.1c-0.1,0-0.1,0.1-0.2,0.1c0,0-0.1,0.1-0.1,0.1l0,0c0,0,0,0,0,0
			l0,0c-0.1,0-0.1,0.1-0.2,0.1c-0.1,0-0.1,0.1-0.2,0.1c-0.1,0-0.1,0.1-0.2,0.1c-0.1,0-0.1,0.1-0.2,0.1l0,0c-0.1,0-0.1,0.1-0.2,0.1
			c-0.1,0-0.1,0-0.2,0.1c0,0-0.1,0-0.1,0c-0.1,0-0.1,0-0.2,0.1c-0.1,0-0.1,0.1-0.2,0.1c-0.1,0-0.1,0-0.2,0.1l-0.1,0c0,0-0.1,0-0.1,0
			l0,0c0,0-0.1,0-0.1,0l0,0c0,0,0,0,0,0l0,0c-0.1,0-0.1,0-0.2,0.1l-0.1,0c0,0-0.1,0-0.2,0c-0.1,0-0.3,0.1-0.4,0.1
			c-0.1,0-0.1,0-0.2,0c-0.3,0.1-0.5,0.1-0.8,0.2c-0.1,0-0.1,0-0.2,0c-0.1,0-0.2,0-0.3,0.1c-0.1,0-0.1,0-0.2,0l0,0c0,0,0,0,0,0l0,0
			c0,0-0.1,0-0.1,0l0,0c0,0-0.1,0-0.1,0l-0.1,0c-0.1,0-0.1,0-0.2,0l0,0c0,0,0,0,0,0c-0.1,0-0.1,0-0.2,0c-0.1,0-0.1,0-0.2,0
			c-0.1,0-0.1,0-0.2,0c-0.1,0-0.1,0-0.2,0l-0.1,0c0,0-0.1,0-0.1,0c0,0-0.1,0-0.1,0c-0.1,0-0.1,0-0.2,0c0,0-0.1,0-0.1,0h0
			c-0.1,0-0.1,0-0.2,0c-0.2,0-0.3,0-0.5,0c-0.3,0-0.5,0-0.8,0c0,0-0.1,0-0.1,0c-0.1,0-0.1,0-0.2,0c-0.1,0-0.1,0-0.2,0
			c-0.1,0-0.1,0-0.2,0c0,0,0,0,0,0l0,0c-0.1,0-0.1,0-0.2,0l-0.1,0c0,0-0.1,0-0.1,0l-0.5-0.1c-0.1,0-0.1,0-0.2,0c-0.1,0-0.1,0-0.2,0
			c-0.1,0-0.2,0-0.2,0c-0.1,0-0.1,0-0.2,0c-0.1,0-0.2,0-0.3-0.1c-0.1,0-0.1,0-0.2,0c-0.3-0.1-0.5-0.1-0.8-0.2c-0.1,0-0.1,0-0.2-0.1
			c-0.1,0-0.3-0.1-0.4-0.1c0,0-0.1,0-0.1,0c-0.1,0-0.1,0-0.2,0c-0.1,0-0.2-0.1-0.3-0.1c-0.1,0-0.1,0-0.2-0.1c-0.1,0-0.1,0-0.2-0.1
			c0,0-0.1,0-0.1,0c0,0-0.1,0-0.1-0.1l0,0c-0.1,0-0.1,0-0.2-0.1c-0.2-0.1-0.3-0.1-0.5-0.2c-0.1,0-0.1-0.1-0.2-0.1
			c-0.1-0.1-0.3-0.1-0.4-0.2c-0.1-0.1-0.3-0.1-0.4-0.2l0,0c-0.1,0-0.1-0.1-0.2-0.1c-0.1-0.1-0.2-0.1-0.3-0.2c0,0-0.1-0.1-0.1-0.1
			c0,0-0.1-0.1-0.1-0.1c0,0-0.1,0-0.1-0.1c0,0-0.1-0.1-0.1-0.1l0,0c0,0-0.1,0-0.1-0.1c0,0,0,0-0.1,0c0,0-0.1,0-0.1-0.1l0,0
			c0,0-0.1-0.1-0.1-0.1l0,0l0,0c0,0-0.1,0-0.1-0.1c0,0-0.1,0-0.1-0.1c-0.1,0-0.1-0.1-0.2-0.1c0,0-0.1-0.1-0.1-0.1
			c-0.1,0-0.1-0.1-0.2-0.1c0,0-0.1-0.1-0.1-0.1l0,0c-0.1-0.1-0.1-0.1-0.2-0.2c-0.1-0.1-0.2-0.2-0.3-0.3c0,0-0.1-0.1-0.1-0.1l0,0
			c0,0-0.1-0.1-0.1-0.1c0,0-0.1-0.1-0.1-0.1l0,0c0,0,0,0,0,0l0,0c0,0,0-0.1-0.1-0.1c0,0-0.1-0.1-0.1-0.1c0,0,0-0.1-0.1-0.1l0,0
			c0,0,0,0,0-0.1c0,0,0,0,0-0.1l0,0c0,0,0,0,0,0l0,0c0,0,0-0.1-0.1-0.1l0,0c0,0,0,0,0,0l0,0c0,0,0,0,0,0c3.7-0.6,7.8-0.9,12-0.9
			c3.6,0,7,0.2,10.3,0.6C-203.8,210.6-203.8,210.7-203.9,210.8L-203.9,210.8L-203.9,210.8z M-185,149.7c-0.1,1.1-0.2,2.3-0.4,3.4
			c-1.5,10.3-6.3,19.4-13.2,25.1l-0.3,0.2l0,0.1c0,0.3-3.7,25.6-4.5,30.3c-3.4-0.4-7-0.7-10.8-0.7c-4.4,0-8.7,0.3-12.6,0.9
			c0-0.1,0-0.1,0-0.2l0,0l-4.5-30.3v-0.3l-0.3-0.3c-7.1-6-11.9-15.4-13.1-26c-0.2-1.9-0.3-3.8-0.3-5.7c0-2.4,0.2-4.9,0.5-7.3
			c0-0.3,0.1-0.5,0.1-0.8c1-5.8,3.1-11.3,6-15.9c0,0,0-0.1,0.1-0.1c0-0.1,0.1-0.1,0.1-0.2c1.6-2.4,3.4-4.6,5.4-6.4
			c1.8-1.7,3.8-3.1,5.9-4.3c0.8-0.4,1.6-0.8,2.5-1.2c3-1.3,6.2-1.9,9.4-1.9c3.2,0,6.3,0.6,9.4,1.9c0.9,0.4,1.9,0.8,2.7,1.3
			c0.1,0.1,0.3,0.2,0.4,0.3c0.1,0,0.1,0.1,0.2,0.1l0,0c0.1,0,0.2,0.1,0.3,0.2l0,0c0.4,0.3,0.9,0.6,1.3,0.9c0.1,0.1,0.2,0.2,0.3,0.2
			l0.1,0.1c0.1,0.1,0.2,0.1,0.3,0.2l0,0c0,0,0,0,0.1,0l0,0c0.1,0.1,0.2,0.1,0.2,0.2l0,0c0.1,0,0.1,0.1,0.2,0.1l0,0
			c0.1,0,0.1,0.1,0.2,0.1c0.1,0.1,0.2,0.2,0.3,0.3l0,0c0.1,0.1,0.2,0.1,0.3,0.2l0,0c0.1,0,0.1,0.1,0.2,0.2c0.1,0,0.1,0.1,0.2,0.1
			l0.1,0.1c0,0,0,0,0.1,0.1c0.1,0.1,0.2,0.2,0.3,0.3l0,0c0,0,0,0,0.1,0l0,0c0.1,0.1,0.2,0.2,0.3,0.3c0.1,0.1,0.2,0.2,0.3,0.3
			c0,0,0.1,0.1,0.1,0.1c0.1,0.1,0.2,0.2,0.3,0.3c0.2,0.2,0.5,0.5,0.7,0.7c0.1,0.1,0.2,0.2,0.3,0.3l0.1,0.1c0.1,0.1,0.2,0.2,0.3,0.3
			l0,0c0.1,0.1,0.2,0.3,0.3,0.4l0,0c0,0,0,0,0.1,0.1l0,0c0.1,0.1,0.2,0.2,0.3,0.3c0.1,0.1,0.2,0.2,0.3,0.4c0.1,0.1,0.2,0.3,0.3,0.4
			c0.1,0.1,0.2,0.2,0.3,0.3l0.1,0.1c0,0,0,0,0,0l0,0c0.1,0.1,0.2,0.3,0.3,0.4c0.1,0.1,0.2,0.3,0.3,0.4l0,0.1
			c0.1,0.1,0.2,0.3,0.3,0.4c0.1,0.1,0.2,0.3,0.3,0.4l0.1,0.1c0.1,0.1,0.2,0.3,0.3,0.4c0.1,0.2,0.2,0.3,0.3,0.5
			c0.2,0.3,0.3,0.5,0.5,0.8l0.1,0.1c0,0,0,0,0,0l0,0.1c0.1,0.1,0.1,0.2,0.2,0.3c0.1,0.2,0.2,0.4,0.3,0.6c0.1,0.1,0.2,0.3,0.2,0.4
			l0,0c0,0,0,0.1,0.1,0.1c0.1,0.1,0.2,0.3,0.2,0.4c0.1,0.2,0.2,0.4,0.3,0.5c0.2,0.3,0.3,0.7,0.5,1.1c0.1,0.2,0.2,0.4,0.2,0.5
			c0,0,0,0,0,0l0.1,0.1c0.1,0.1,0.1,0.2,0.2,0.4c0.2,0.4,0.3,0.8,0.5,1.2c0.1,0.1,0.1,0.3,0.2,0.5l0.3,0.7c0.2,0.5,0.4,1.1,0.6,1.7
			c0,0.1,0.1,0.2,0.1,0.3c0,0.1,0.1,0.3,0.1,0.4l0,0c0,0.1,0.1,0.2,0.1,0.3c0.1,0.4,0.2,0.9,0.3,1.3c0,0.1,0.1,0.3,0.1,0.5
			c0,0.2,0.1,0.3,0.1,0.5l0.1,0.3c0,0,0,0.1,0,0.1l0,0c0,0.1,0.1,0.2,0.1,0.3c0,0.2,0.1,0.4,0.1,0.6c0,0,0,0.1,0,0.1
			c0,0.1,0.1,0.3,0.1,0.4l0.1,0.3c0,0.1,0,0.3,0.1,0.4c0.5,2.7,0.7,5.4,0.7,8.2C-184.9,147.5-184.9,148.6-185,149.7z M-184.4,135.4
			c0-0.1,0-0.2-0.1-0.3c0-0.2-0.1-0.3-0.1-0.5c0-0.2-0.1-0.3-0.1-0.5c-0.1-0.4-0.2-0.9-0.4-1.3l-0.1-0.3c0-0.1-0.1-0.3-0.1-0.4
			l-0.1-0.3c-0.2-0.6-0.4-1.2-0.6-1.8l0,0c0-0.1-0.1-0.2-0.1-0.2l0-0.1c0-0.1-0.1-0.2-0.1-0.3l-0.2-0.5c-0.2-0.4-0.3-0.8-0.5-1.2
			c-0.1-0.1-0.1-0.2-0.2-0.4l0-0.1l0-0.1c-0.1-0.2-0.2-0.4-0.3-0.6c-0.2-0.4-0.3-0.7-0.5-1.1c-0.1-0.2-0.2-0.4-0.3-0.5
			c-0.1-0.1-0.1-0.3-0.2-0.5l0,0c0,0,0-0.1-0.1-0.1c-0.1-0.1-0.2-0.3-0.2-0.5l0,0c-0.1-0.2-0.2-0.4-0.3-0.6c0-0.1-0.1-0.1-0.1-0.2
			v-0.1l-0.2-0.2c-0.2-0.3-0.4-0.6-0.6-0.9c-0.1-0.1-0.2-0.3-0.3-0.4l-0.1-0.1c-0.1-0.2-0.2-0.3-0.3-0.5l-0.1-0.1
			c-0.1-0.1-0.2-0.3-0.3-0.4c-0.1-0.1-0.2-0.3-0.3-0.4l0,0c0,0,0,0,0,0c-0.1-0.1-0.2-0.3-0.3-0.4c-0.1-0.1-0.2-0.3-0.3-0.4l0,0
			c-0.1-0.2-0.2-0.3-0.4-0.5c-0.1-0.1-0.2-0.3-0.4-0.4c-0.1-0.2-0.3-0.3-0.4-0.4c-0.1-0.1-0.2-0.2-0.3-0.3c0,0-0.1-0.1-0.1-0.1
			c-0.1-0.1-0.2-0.3-0.3-0.4c0,0,0,0,0,0l0,0c-0.1-0.1-0.2-0.2-0.2-0.3l-0.1-0.1c-0.1-0.1-0.3-0.3-0.4-0.4c-0.2-0.3-0.5-0.5-0.7-0.7
			c-0.1-0.1-0.2-0.2-0.3-0.3c0,0-0.1-0.1-0.1-0.1c-0.1-0.1-0.2-0.2-0.3-0.3c-0.1-0.1-0.2-0.2-0.3-0.3c0,0-0.1-0.1-0.1-0.1
			c-0.1-0.1-0.2-0.2-0.3-0.3c0,0-0.1,0-0.1-0.1l0,0c-0.1-0.1-0.2-0.1-0.2-0.2c-0.1-0.1-0.1-0.1-0.2-0.2c-0.1-0.1-0.2-0.2-0.3-0.2
			c0,0,0,0-0.1,0c-0.1-0.1-0.2-0.2-0.3-0.3l0,0c0,0-0.1-0.1-0.1-0.1l-0.1-0.1c-0.1,0-0.1-0.1-0.2-0.1l0,0c-0.1-0.1-0.2-0.1-0.2-0.2
			c0,0-0.1-0.1-0.1-0.1c-0.1-0.1-0.2-0.2-0.3-0.3l0,0c0,0,0,0,0,0l0,0c-0.1-0.1-0.2-0.2-0.4-0.2c-0.5-0.3-0.9-0.6-1.4-0.9l-0.1,0
			c-0.1,0-0.1-0.1-0.2-0.1c-0.1,0-0.1-0.1-0.2-0.1l0,0c-0.2-0.1-0.3-0.2-0.5-0.3c-0.8-0.4-1.6-0.8-2.4-1.2c0-0.8,0-1.6,0-2.5
			c0.2-13.1,0.6-27.2,1.9-41.5c0.1-0.9,0.1-1.8,0.2-2.8c0.4-5.7,0.9-11.1,2.5-16.7l0,0c0,0,0,0,0,0l0,0c0,0,0-0.1,0-0.1
			c0-0.1,0-0.1,0.1-0.2c0.4-1.4,0.9-2.6,1.6-3.8c2.6,8.9,7.3,25.9,10.8,44C-183.1,107.4-182.1,124.2-184.4,135.4z M-172.6,113.6
			L-172.6,113.6c0,0.1-0.1,0.4-0.1,0.5c-1.9,6.5-5.4,15-9.7,20.2c2-11.3,0.9-27.9-3.1-49.4c-3.3-17.6-7.8-34.1-10.4-43
			c0.8,0.7,1.4,1.6,1.9,2.5c6.4,11.7,10.9,23.4,15.6,35.8l0,0c0.8,2.1,1.6,4.2,2.4,6.3c1.7,4.5,3.5,9.9,4.3,15.6
			C-171.3,106.3-172.2,111.5-172.6,113.6z"/>
	</g>
	<g>
		<path class="st27" d="M-311.8,243.9V259h-1.9v-15.1H-311.8z"/>
		<path class="st27" d="M-309.5,243.9h1.9v6.6c0.7-1.3,1.9-1.9,3.4-1.9c1.5,0,2.8,0.5,3.9,1.6s1.6,2.3,1.6,3.7
			c0,1.4-0.5,2.7-1.6,3.7c-1,1.1-2.3,1.6-3.9,1.6c-1.5,0-2.7-0.6-3.4-1.9v1.6h-1.9V243.9z M-307.6,253.1v1.6c0.1,0.7,0.5,1.3,1,1.8
			c0.7,0.7,1.5,1,2.4,1c0.9,0,1.8-0.3,2.5-1c0.7-0.7,1-1.5,1-2.6c0-1-0.3-1.9-1-2.6c-0.7-0.7-1.5-1-2.5-1c-0.9,0-1.8,0.4-2.5,1.1
			C-307.1,251.9-307.4,252.4-307.6,253.1z"/>
		<path class="st27" d="M-294.8,246.7c0.3,0.2,0.4,0.5,0.4,0.8c0,0.3-0.1,0.6-0.4,0.9c-0.3,0.2-0.6,0.4-1,0.4c-0.4,0-0.7-0.1-1-0.4
			c-0.3-0.2-0.4-0.5-0.4-0.9c0-0.3,0.1-0.6,0.4-0.8c0.3-0.2,0.6-0.4,1-0.4C-295.4,246.3-295.1,246.4-294.8,246.7z M-294.8,249.4v9.6
			h-1.9v-9.6H-294.8z"/>
		<path class="st27" d="M-288.4,251.2h-4.2v-1.6h7.3l-4.5,7.8h4.6v1.6h-7.6L-288.4,251.2z"/>
		<path class="st27" d="M-273.1,259h-1.9v-1.7c-0.7,1.3-1.9,1.9-3.4,1.9c-1.5,0-2.8-0.5-3.9-1.6c-1.1-1.1-1.6-2.3-1.6-3.7
			c0-1.4,0.5-2.7,1.6-3.7c1.1-1,2.3-1.6,3.9-1.6c1.5,0,2.7,0.6,3.4,1.9v-1.1h1.9V259z M-275,254.7v-1.5c-0.1-0.7-0.5-1.3-1-1.8
			c-0.7-0.7-1.5-1.1-2.5-1.1c-0.9,0-1.8,0.3-2.5,1c-0.7,0.7-1,1.6-1,2.6c0,1,0.3,1.9,1,2.6c0.7,0.7,1.5,1,2.5,1
			c0.9,0,1.8-0.4,2.5-1.1C-275.5,256-275.2,255.4-275,254.7z"/>
		<path class="st27" d="M-262.5,243.9c2.5,0,4.5,0.7,5.9,2.1c1.5,1.5,2.2,3.3,2.2,5.4c0,2.1-0.8,3.9-2.3,5.5
			c-1.4,1.4-3.3,2.1-5.8,2.1h-3.2v-15.1H-262.5z M-263.8,245.6v11.8h1.3c1.9,0,3.3-0.5,4.4-1.6c1.2-1.2,1.8-2.6,1.8-4.3
			c0-1.7-0.6-3.1-1.8-4.3c-1.1-1-2.5-1.5-4.4-1.5H-263.8z"/>
		<path class="st27" d="M-248.3,250.8c-0.9,0.1-1.5,0.5-2,1c-0.5,0.6-0.7,1.3-0.7,2.1v5h-1.9v-9.6h1.9v1.4c0.3-0.7,0.9-1.3,1.8-1.6
			L-248.3,250.8z"/>
		<path class="st27" d="M-244.6,246.7c0.3,0.2,0.4,0.5,0.4,0.8c0,0.3-0.1,0.6-0.4,0.9c-0.3,0.2-0.6,0.4-1,0.4c-0.4,0-0.7-0.1-1-0.4
			c-0.3-0.2-0.4-0.5-0.4-0.9c0-0.3,0.1-0.6,0.4-0.8c0.3-0.2,0.6-0.4,1-0.4C-245.2,246.3-244.9,246.4-244.6,246.7z M-244.6,249.4v9.6
			h-1.9v-9.6H-244.6z"/>
		<path class="st27" d="M-240.5,251.8v7.2h-1.9v-9.6h1.9c0.3-0.3,1-0.5,2-0.5c1.2,0,2.2,0.4,2.9,1.1c0.7,0.7,1.1,1.6,1.1,2.7v6.3
			h-1.9v-6.2c0-0.7-0.2-1.2-0.7-1.6c-0.4-0.4-0.9-0.6-1.5-0.6c-0.6,0-1.1,0.2-1.5,0.6C-240.2,251.4-240.4,251.6-240.5,251.8z"/>
		<path class="st27" d="M-226.5,249.4l-2.5,3.1l3.7,6.5h-2.2l-2.7-5l-0.1,0.2v4.8h-1.9v-13.3h1.9v5.7l1.6-2H-226.5z"/>
		<path class="st27" d="M-222.1,254.2c-0.7-0.4-1.2-0.7-1.5-1c-0.5-0.5-0.8-1.1-0.8-1.8c0-0.7,0.3-1.3,0.8-1.8
			c0.5-0.5,1.1-0.8,1.9-0.8s1.4,0.2,1.8,0.7c0.5,0.5,0.7,1,0.7,1.6v0.3l-1.7,0.7c-0.1-0.8-0.2-1.3-0.4-1.4c-0.1-0.1-0.3-0.2-0.5-0.2
			c-0.2,0-0.4,0.1-0.5,0.2c-0.2,0.2-0.2,0.4-0.2,0.6c0,0.3,0.1,0.5,0.3,0.7c0.1,0.1,0.4,0.3,0.8,0.6c0.8,0.4,1.4,0.8,1.7,1.2
			c0.6,0.6,0.9,1.3,0.9,2.1c0,0.8-0.3,1.5-0.9,2.1c-0.6,0.6-1.3,0.9-2.2,0.9c-0.9,0-1.6-0.3-2.2-0.9c-0.6-0.6-0.9-1.4-0.9-2.3
			l1.9-0.5c0,0.8,0.1,1.3,0.4,1.6c0.3,0.3,0.5,0.4,0.9,0.4s0.6-0.1,0.9-0.4c0.3-0.3,0.4-0.6,0.4-1c0-0.4-0.1-0.7-0.4-1
			C-221.2,254.8-221.5,254.5-222.1,254.2z"/>
		<path class="st27" d="M-203.2,243.9v1.6h-6.3v5.1h6.3v1.6h-6.3v5.1h6.3v1.6h-8.2v-15.1H-203.2z"/>
		<path class="st27" d="M-198.9,253.9l-2.8-4.5h2.1l1.8,2.8l1.8-2.8h2.1l-2.8,4.5l3.1,5h-2.1l-2.1-3.3l-2.1,3.3h-2.1L-198.9,253.9z"
			/>
		<path class="st27" d="M-192.7,249.4h1.9v1.1c0.7-1.3,1.9-1.9,3.4-1.9c1.5,0,2.8,0.5,3.9,1.6c1,1,1.6,2.3,1.6,3.7
			c0,1.4-0.5,2.7-1.6,3.7c-1,1.1-2.3,1.6-3.9,1.6c-1.5,0-2.7-0.6-3.4-1.9v5h-1.9V249.4z M-190.8,253.1v1.6c0.1,0.7,0.5,1.3,1,1.8
			c0.7,0.7,1.5,1,2.4,1c0.9,0,1.8-0.3,2.5-1c0.7-0.7,1-1.6,1-2.6c0-1-0.3-1.9-1-2.6c-0.7-0.7-1.5-1-2.5-1c-0.9,0-1.8,0.4-2.5,1.1
			C-190.3,251.9-190.7,252.4-190.8,253.1z"/>
		<path class="st27" d="M-178.8,253.9L-178.8,253.9c0,1.1,0.3,1.9,1,2.6c0.7,0.7,1.5,1,2.5,1c0.9,0,1.8-0.4,2.5-1.1
			c0.1-0.1,0.3-0.3,0.6-0.7l1.8,0.6c-0.3,0.4-0.6,0.8-0.9,1.2c-1.1,1.1-2.4,1.6-3.9,1.6c-1.5,0-2.8-0.5-3.9-1.6
			c-1.1-1.1-1.6-2.3-1.6-3.7c0-1.4,0.5-2.7,1.6-3.7c1.1-1,2.3-1.6,3.9-1.6c1.5,0,2.8,0.5,3.9,1.6c0.9,0.9,1.4,2.2,1.4,3.7H-178.8z
			 M-178.5,252.2h6.3c-0.4-1.3-1.5-2-3.1-2C-177,250.3-178,250.9-178.5,252.2z"/>
		<path class="st27" d="M-164.2,250.8c-0.9,0.1-1.5,0.5-2,1c-0.5,0.6-0.7,1.3-0.7,2.1v5h-1.9v-9.6h1.9v1.4c0.3-0.7,0.9-1.3,1.8-1.6
			L-164.2,250.8z"/>
		<path class="st27" d="M-160.6,246.7c0.3,0.2,0.4,0.5,0.4,0.8c0,0.3-0.1,0.6-0.4,0.9c-0.3,0.2-0.6,0.4-1,0.4c-0.4,0-0.7-0.1-1-0.4
			c-0.3-0.2-0.4-0.5-0.4-0.9c0-0.3,0.1-0.6,0.4-0.8c0.3-0.2,0.6-0.4,1-0.4C-161.1,246.3-160.8,246.4-160.6,246.7z M-160.6,249.4v9.6
			h-1.9v-9.6H-160.6z"/>
		<path class="st27" d="M-156.9,253.9L-156.9,253.9c0,1.1,0.3,1.9,1,2.6c0.7,0.7,1.5,1,2.5,1c0.9,0,1.8-0.4,2.5-1.1
			c0.1-0.1,0.3-0.3,0.6-0.7l1.8,0.6c-0.3,0.4-0.6,0.8-0.9,1.2c-1.1,1.1-2.4,1.6-3.9,1.6c-1.5,0-2.8-0.5-3.9-1.6
			c-1.1-1.1-1.6-2.3-1.6-3.7c0-1.4,0.5-2.7,1.6-3.7c1.1-1,2.3-1.6,3.9-1.6c1.5,0,2.8,0.5,3.9,1.6c0.9,0.9,1.4,2.2,1.4,3.7H-156.9z
			 M-156.5,252.2h6.3c-0.4-1.3-1.5-2-3.1-2C-155,250.3-156.1,250.9-156.5,252.2z"/>
		<path class="st27" d="M-144.8,251.8v7.2h-1.9v-9.6h1.9c0.3-0.3,1-0.5,2-0.5c1.2,0,2.2,0.4,2.9,1.1c0.7,0.7,1.1,1.6,1.1,2.7v6.3
			h-1.9v-6.2c0-0.7-0.2-1.2-0.7-1.6c-0.4-0.4-0.9-0.6-1.5-0.6c-0.6,0-1.1,0.2-1.5,0.6C-144.5,251.4-144.7,251.6-144.8,251.8z"/>
		<path class="st27" d="M-128.8,255.9l1.8,0.7c-0.4,0.5-0.6,0.8-0.8,1c-1.1,1.1-2.4,1.6-3.9,1.6c-1.5,0-2.8-0.5-3.9-1.6
			c-1.1-1.1-1.6-2.3-1.6-3.7c0-1.4,0.5-2.7,1.6-3.7c1.1-1,2.3-1.6,3.9-1.6c1.5,0,2.8,0.5,3.9,1.6c0.2,0.2,0.5,0.6,0.9,1.1l-1.8,0.7
			c-0.3-0.3-0.4-0.5-0.5-0.6c-0.7-0.7-1.5-1-2.4-1c-0.9,0-1.8,0.3-2.4,1c-0.7,0.7-1,1.6-1,2.6c0,1,0.3,1.9,1,2.6
			c0.7,0.7,1.5,1,2.4,1c0.9,0,1.8-0.4,2.5-1.1C-129.2,256.4-129,256.2-128.8,255.9z"/>
		<path class="st27" d="M-123.9,253.9L-123.9,253.9c0,1.1,0.3,1.9,1,2.6c0.7,0.7,1.5,1,2.5,1c0.9,0,1.8-0.4,2.5-1.1
			c0.1-0.1,0.3-0.3,0.6-0.7l1.8,0.6c-0.3,0.4-0.6,0.8-0.9,1.2c-1.1,1.1-2.4,1.6-3.9,1.6c-1.5,0-2.8-0.5-3.9-1.6
			c-1.1-1.1-1.6-2.3-1.6-3.7c0-1.4,0.5-2.7,1.6-3.7c1.1-1,2.3-1.6,3.9-1.6c1.5,0,2.8,0.5,3.9,1.6c0.9,0.9,1.4,2.2,1.4,3.7H-123.9z
			 M-123.6,252.2h6.3c-0.4-1.3-1.5-2-3.1-2C-122.1,250.3-123.1,250.9-123.6,252.2z"/>
	</g>
</g>
<g>
	<g id="ojos_6_">
		<g>
			<g>
				<g>
					<linearGradient id="SVGID_27_" gradientUnits="userSpaceOnUse" x1="126.7335" y1="149.4826" x2="147.301" y2="149.4826">
						<stop  offset="0" style="stop-color:#F3F3FF"/>
						<stop  offset="0.1292" style="stop-color:#E2E2EF"/>
						<stop  offset="0.2878" style="stop-color:#F3F3FF"/>
						<stop  offset="0.4484" style="stop-color:#C4C4D0"/>
						<stop  offset="0.5443" style="stop-color:#E2E2EE"/>
						<stop  offset="0.6146" style="stop-color:#F3F3FF"/>
						<stop  offset="0.7472" style="stop-color:#EAEAF7"/>
						<stop  offset="0.9118" style="stop-color:#C4C4D0"/>
						<stop  offset="0.9472" style="stop-color:#D3D3E0"/>
						<stop  offset="0.9944" style="stop-color:#E4E4F1"/>
					</linearGradient>
					<path class="st28" d="M147.3,137.9c-0.2,3-0.5,5.7-1.5,8.2c-0.8,2.1-1.9,3.9-3.4,5.7c0,0,0,0,0,0c-0.4,0.5-0.9,1-1.4,1.5
						c-0.2,0.2-0.4,0.3-0.5,0.5c-2.4,2.3-4.9,4.5-7.5,6.6c-1.1,0.9-2.4,2.1-2.7,3c-2.7,6.6-3.3,28.4-3.3,28.4s-0.3-23.8-0.1-31.7
						c0-1.3,0.3-3.5,0.4-5.2c0.4-3.6,1.6-6.6,4.4-8.7c2.1-1.6,4.1-3.4,6-5.4c1.9-1.9,3.4-4.1,4-6.8c0,0,0-0.1,0-0.1
						c0.3-1.1,0.4-2.3,0.3-3.5c0-0.1,0-0.2,0-0.3c-0.1-2.1-0.3-4.1-0.6-6.2c-0.9-5.8-2.5-11.4-4.4-16.8c0.5,0.3,0.9,0.6,1.4,0.9
						c0.1,0.1,0.2,0.2,0.3,0.2c0,0,0,0,0.1,0c0.1,0.1,0.2,0.2,0.3,0.3c0,0,0.1,0.1,0.1,0.1c0.1,0.1,0.2,0.1,0.3,0.2
						c0.1,0,0.1,0.1,0.2,0.1c0.1,0.1,0.1,0.1,0.2,0.2c0.1,0.1,0.2,0.2,0.3,0.3c0,0,0,0,0,0c0.1,0.1,0.2,0.2,0.3,0.2
						c0.1,0.1,0.1,0.1,0.2,0.2c0.1,0.1,0.2,0.1,0.2,0.2c0,0,0.1,0,0.1,0.1c0.1,0.1,0.2,0.2,0.3,0.3c0,0,0.1,0.1,0.1,0.1
						c0.1,0.1,0.2,0.2,0.3,0.3c0.1,0.1,0.2,0.2,0.3,0.3c0,0,0.1,0.1,0.1,0.1c0.1,0.1,0.2,0.2,0.3,0.3c0.2,0.2,0.5,0.5,0.7,0.7
						c0.1,0.4,0.2,0.8,0.3,1.2c1.2,4.2,2.1,8.4,2.8,12.7c0.4,2.7,0.6,5.4,0.8,8.1c0,0.2,0,0.3,0,0.5
						C147.3,135.8,147.3,136.9,147.3,137.9z"/>
				</g>
			</g>
			<g>
				<g>
					<linearGradient id="SVGID_28_" gradientUnits="userSpaceOnUse" x1="121.3043" y1="162.9704" x2="121.3095" y2="162.9704">
						<stop  offset="0" style="stop-color:#F3F3FF"/>
						<stop  offset="0.1292" style="stop-color:#E2E2EF"/>
						<stop  offset="0.2878" style="stop-color:#F3F3FF"/>
						<stop  offset="0.4484" style="stop-color:#C4C4D0"/>
						<stop  offset="0.5443" style="stop-color:#E2E2EE"/>
						<stop  offset="0.6146" style="stop-color:#F3F3FF"/>
						<stop  offset="0.7472" style="stop-color:#EAEAF7"/>
						<stop  offset="0.9118" style="stop-color:#C4C4D0"/>
						<stop  offset="0.9472" style="stop-color:#D3D3E0"/>
						<stop  offset="0.9944" style="stop-color:#E4E4F1"/>
					</linearGradient>
					<path class="st29" d="M121.3,163.8l0-1.6C121.3,162.7,121.3,163.2,121.3,163.8z"/>
				</g>
			</g>
			<g>
				<g>
					<g>
						<linearGradient id="SVGID_29_" gradientUnits="userSpaceOnUse" x1="100.9774" y1="149.1375" x2="121.3071" y2="149.1375">
							<stop  offset="0" style="stop-color:#F3F3FF"/>
							<stop  offset="0.1292" style="stop-color:#E2E2EF"/>
							<stop  offset="0.2878" style="stop-color:#F3F3FF"/>
							<stop  offset="0.4484" style="stop-color:#C4C4D0"/>
							<stop  offset="0.5443" style="stop-color:#E2E2EE"/>
							<stop  offset="0.6146" style="stop-color:#F3F3FF"/>
							<stop  offset="0.7472" style="stop-color:#EAEAF7"/>
							<stop  offset="0.9118" style="stop-color:#C4C4D0"/>
							<stop  offset="0.9472" style="stop-color:#D3D3E0"/>
							<stop  offset="0.9944" style="stop-color:#E4E4F1"/>
						</linearGradient>
						<path class="st30" d="M121.3,162.1l0,1.6l0,28.1c0,0-0.5-22.1-3.4-28.7c-0.4-0.9-1.5-1.9-2.5-2.7c-2.6-2.1-5.1-4.3-7.5-6.6
							c-0.2-0.2-0.4-0.3-0.5-0.5c-0.5-0.5-1-1-1.4-1.5c0,0,0,0,0,0c-1.5-1.7-2.6-3.6-3.4-5.7c-0.9-2.3-1.4-7.5-1.4-7.5
							s-0.2-2.6-0.1-4c0-0.2,0-0.3,0-0.5c0.1-2.7,0.4-5.4,0.8-8.1c0.6-4.3,1.6-8.6,2.8-12.7c0.2-0.8,0.5-1.7,0.7-2.5
							c1.9-1.7,3.9-3.2,6.1-4.4c-2,5.7-3.7,11.4-4.6,17.5c-0.3,2-0.5,4.1-0.6,6.2c0,0.1,0,0.2,0,0.3c-0.1,1.3,0.1,2.4,0.3,3.5
							c0,0,0,0.1,0,0.1c0.6,2.6,2.1,4.9,4,6.8c1.9,1.9,3.9,3.7,6,5.4c2.7,2.1,4,5.1,4.4,8.7c0.2,1.7,0.3,3.4,0.3,5.2
							C121.3,160.8,121.3,161.5,121.3,162.1z"/>
					</g>
				</g>
			</g>
		</g>
	</g>
	<g id="lineas_en_la_oreja_5_">
		<g>
			<linearGradient id="SVGID_30_" gradientUnits="userSpaceOnUse" x1="149.1277" y1="64.5287" x2="154.8723" y2="64.5287">
				<stop  offset="0" style="stop-color:#F3F3FF"/>
				<stop  offset="0.1292" style="stop-color:#E2E2EF"/>
				<stop  offset="0.2878" style="stop-color:#F3F3FF"/>
				<stop  offset="0.4484" style="stop-color:#C4C4D0"/>
				<stop  offset="0.5443" style="stop-color:#E2E2EE"/>
				<stop  offset="0.6146" style="stop-color:#F3F3FF"/>
				<stop  offset="0.7472" style="stop-color:#EAEAF7"/>
				<stop  offset="0.9118" style="stop-color:#C4C4D0"/>
				<stop  offset="0.9472" style="stop-color:#D3D3E0"/>
				<stop  offset="0.9944" style="stop-color:#E4E4F1"/>
			</linearGradient>
			<path class="st31" d="M153.2,60.7l1.7-0.5c-0.1-0.1-0.1-0.3-0.2-0.4l-5.6,1.5c0,0.1,0.1,0.3,0.1,0.4l3.5-0.9l-1.7,6.3l-0.7-0.8
				c0.1,0.3,0.1,0.5,0.2,0.8l0.4,0.4c0,0,0,0,0,0l-0.2,0.7c0.1,0.3,0.1,0.6,0.2,0.9L153.2,60.7C153.2,60.7,153.2,60.7,153.2,60.7z"
				/>
			<linearGradient id="SVGID_31_" gradientUnits="userSpaceOnUse" x1="145.8325" y1="48.1698" x2="149.3655" y2="48.1698">
				<stop  offset="0" style="stop-color:#F3F3FF"/>
				<stop  offset="0.1292" style="stop-color:#E2E2EF"/>
				<stop  offset="0.2878" style="stop-color:#F3F3FF"/>
				<stop  offset="0.4484" style="stop-color:#C4C4D0"/>
				<stop  offset="0.5443" style="stop-color:#E2E2EE"/>
				<stop  offset="0.6146" style="stop-color:#F3F3FF"/>
				<stop  offset="0.7472" style="stop-color:#EAEAF7"/>
				<stop  offset="0.9118" style="stop-color:#C4C4D0"/>
				<stop  offset="0.9472" style="stop-color:#D3D3E0"/>
				<stop  offset="0.9944" style="stop-color:#E4E4F1"/>
			</linearGradient>
			<path class="st32" d="M146.1,49.1l0.2-0.6c0,0,0,0,0,0l3.1-0.8c-0.1-0.1-0.1-0.3-0.2-0.4l-3.3,0.9
				C145.9,48.5,146,48.8,146.1,49.1z"/>
			<linearGradient id="SVGID_32_" gradientUnits="userSpaceOnUse" x1="144.667" y1="45.3285" x2="148.9818" y2="45.3285">
				<stop  offset="0" style="stop-color:#F3F3FF"/>
				<stop  offset="0.1292" style="stop-color:#E2E2EF"/>
				<stop  offset="0.2878" style="stop-color:#F3F3FF"/>
				<stop  offset="0.4484" style="stop-color:#C4C4D0"/>
				<stop  offset="0.5443" style="stop-color:#E2E2EE"/>
				<stop  offset="0.6146" style="stop-color:#F3F3FF"/>
				<stop  offset="0.7472" style="stop-color:#EAEAF7"/>
				<stop  offset="0.9118" style="stop-color:#C4C4D0"/>
				<stop  offset="0.9472" style="stop-color:#D3D3E0"/>
				<stop  offset="0.9944" style="stop-color:#E4E4F1"/>
			</linearGradient>
			<path class="st33" d="M148.6,46.1l-4-2.3c0.1,0.2,0.1,0.4,0.2,0.6l4.1,2.4C148.9,46.6,148.8,46.4,148.6,46.1z"/>
			<linearGradient id="SVGID_33_" gradientUnits="userSpaceOnUse" x1="156.2491" y1="131.9726" x2="156.3979" y2="131.9726">
				<stop  offset="0" style="stop-color:#F3F3FF"/>
				<stop  offset="0.1292" style="stop-color:#E2E2EF"/>
				<stop  offset="0.2878" style="stop-color:#F3F3FF"/>
				<stop  offset="0.4484" style="stop-color:#C4C4D0"/>
				<stop  offset="0.5443" style="stop-color:#E2E2EE"/>
				<stop  offset="0.6146" style="stop-color:#F3F3FF"/>
				<stop  offset="0.7472" style="stop-color:#EAEAF7"/>
				<stop  offset="0.9118" style="stop-color:#C4C4D0"/>
				<stop  offset="0.9472" style="stop-color:#D3D3E0"/>
				<stop  offset="0.9944" style="stop-color:#E4E4F1"/>
			</linearGradient>
			<path class="st34" d="M156.3,131.9c0,0.1,0,0.2,0,0.2c0.1-0.1,0.1-0.1,0.1-0.2L156.3,131.9z"/>
			<linearGradient id="SVGID_34_" gradientUnits="userSpaceOnUse" x1="147.9266" y1="53.2621" x2="153.8904" y2="53.2621">
				<stop  offset="0" style="stop-color:#F3F3FF"/>
				<stop  offset="0.1292" style="stop-color:#E2E2EF"/>
				<stop  offset="0.2878" style="stop-color:#F3F3FF"/>
				<stop  offset="0.4484" style="stop-color:#C4C4D0"/>
				<stop  offset="0.5443" style="stop-color:#E2E2EE"/>
				<stop  offset="0.6146" style="stop-color:#F3F3FF"/>
				<stop  offset="0.7472" style="stop-color:#EAEAF7"/>
				<stop  offset="0.9118" style="stop-color:#C4C4D0"/>
				<stop  offset="0.9472" style="stop-color:#D3D3E0"/>
				<stop  offset="0.9944" style="stop-color:#E4E4F1"/>
			</linearGradient>
			<path class="st35" d="M150.3,49.6c-0.1-0.3-0.3-0.6-0.4-1v6.5l-1.9,1.1c0,0.2,0.1,0.3,0.1,0.5l2-1.2l3.8,2.2
				c-0.1-0.2-0.2-0.5-0.3-0.7l-3.3-1.9V49.6z"/>
			<linearGradient id="SVGID_35_" gradientUnits="userSpaceOnUse" x1="151.7099" y1="96.1705" x2="167.8913" y2="96.1705">
				<stop  offset="0" style="stop-color:#F3F3FF"/>
				<stop  offset="0.1292" style="stop-color:#E2E2EF"/>
				<stop  offset="0.2878" style="stop-color:#F3F3FF"/>
				<stop  offset="0.4484" style="stop-color:#C4C4D0"/>
				<stop  offset="0.5443" style="stop-color:#E2E2EE"/>
				<stop  offset="0.6146" style="stop-color:#F3F3FF"/>
				<stop  offset="0.7472" style="stop-color:#EAEAF7"/>
				<stop  offset="0.9118" style="stop-color:#C4C4D0"/>
				<stop  offset="0.9472" style="stop-color:#D3D3E0"/>
				<stop  offset="0.9944" style="stop-color:#E4E4F1"/>
			</linearGradient>
			<path class="st36" d="M166.5,111.1c0-0.2,0.1-0.4,0.2-0.5c0,0,0,0,0,0l0.1-0.3l0-0.2c0.1-0.4,0.1-0.7,0.2-1.1l-6.9,1.9h0l-0.2,0
				c0,0,0,0,0,0l0,0h0l-2.6-2.6l6.6-3.9l3.5,2c0-0.2,0-0.3,0.1-0.5l-3.3-2v-7.5l3.7,3.8c0-0.2,0-0.4,0-0.7l-0.5-0.6l0.5-0.1
				c0-0.2,0-0.3,0-0.5l-0.8,0.2c0,0,0,0,0,0l-2.6-2.7l2.8-1.6c0-0.2-0.1-0.3-0.1-0.5l-2.7,1.6l1.6-5.9c-0.1-0.3-0.2-0.5-0.2-0.8
				l-0.7,2.7l-4.5-4.6l4.3-1.2c0-0.1-0.1-0.3-0.1-0.4l-4.5,1.2c0,0,0,0,0,0l-2.6-2.7l4.1-2.4h0l1.3-0.8c-0.1-0.1-0.1-0.3-0.2-0.4
				l-5.2,3.1l0.5-1.9h0l2.1-8.1c-0.1-0.3-0.2-0.6-0.3-0.8l-6.6,1.8c0,0,0,0,0,0l-1.4-1.4c0.1,0.3,0.1,0.5,0.2,0.8l6,6c0,0,0,0,0,0
				l-1,3.7l-3.5-2.1c0,0.2,0.1,0.4,0.1,0.6l3,1.7l-2.5,0.7c0,0.1,0.1,0.3,0.1,0.4l2.8-0.8v7.7l-1.5,0.9c0,0.2,0,0.3,0.1,0.5l1.7-1
				l6.4,3.7l-7.4,2c0,0.1,0,0.3,0.1,0.4l3.6-1l-1.7,6.3l-1.5-1.5c0,0.2,0,0.5,0.1,0.7l1.3,1.3c0,0,0,0,0,0l-0.9,3.4
				c0.1,1.6,0.2,3.1,0.3,4.6v-3.5l7.5,7.6c0,0,0,0,0,0l-0.9,3.5C165,117.1,165.9,114.2,166.5,111.1z M153.4,74.7l6.2-1.7l-1.7,6.3
				L153.4,74.7z M157.2,91.8v-7.5l7.5,7.6c0,0,0,0,0,0l-1,3.7L157.2,91.8z M160.1,97.3C160.1,97.3,160.1,97.3,160.1,97.3l3.6-1v7.7
				l-6.4,3.7L160.1,97.3z M160.4,111.3l6.2-1.7l-0.3,1.3h0l-1.3,5L160.4,111.3z"/>
			<linearGradient id="SVGID_36_" gradientUnits="userSpaceOnUse" x1="156.9151" y1="123.6096" x2="163.7926" y2="123.6096">
				<stop  offset="0" style="stop-color:#F3F3FF"/>
				<stop  offset="0.1292" style="stop-color:#E2E2EF"/>
				<stop  offset="0.2878" style="stop-color:#F3F3FF"/>
				<stop  offset="0.4484" style="stop-color:#C4C4D0"/>
				<stop  offset="0.5443" style="stop-color:#E2E2EE"/>
				<stop  offset="0.6146" style="stop-color:#F3F3FF"/>
				<stop  offset="0.7472" style="stop-color:#EAEAF7"/>
				<stop  offset="0.9118" style="stop-color:#C4C4D0"/>
				<stop  offset="0.9472" style="stop-color:#D3D3E0"/>
				<stop  offset="0.9944" style="stop-color:#E4E4F1"/>
			</linearGradient>
			<path class="st37" d="M157.9,130.1l2.2-8.5c0,0,0,0,0,0l3.4-0.9c0.1-0.2,0.2-0.5,0.3-0.7l-6.4-3.8c0,0.2,0,0.3,0,0.5l6,3.5
				l-6.1,1.6c0,0.2,0,0.3,0,0.5l2.3-0.6L158,128l-1-1c0,0.2,0,0.4-0.1,0.6l0.9,0.9c0,0,0,0,0,0l-0.6,2.4
				C157.4,130.7,157.7,130.4,157.9,130.1z"/>
			<linearGradient id="SVGID_37_" gradientUnits="userSpaceOnUse" x1="142.9047" y1="37.8767" x2="143.3474" y2="37.8767">
				<stop  offset="0" style="stop-color:#F3F3FF"/>
				<stop  offset="0.1292" style="stop-color:#E2E2EF"/>
				<stop  offset="0.2878" style="stop-color:#F3F3FF"/>
				<stop  offset="0.4484" style="stop-color:#C4C4D0"/>
				<stop  offset="0.5443" style="stop-color:#E2E2EE"/>
				<stop  offset="0.6146" style="stop-color:#F3F3FF"/>
				<stop  offset="0.7472" style="stop-color:#EAEAF7"/>
				<stop  offset="0.9118" style="stop-color:#C4C4D0"/>
				<stop  offset="0.9472" style="stop-color:#D3D3E0"/>
				<stop  offset="0.9944" style="stop-color:#E4E4F1"/>
			</linearGradient>
			<path class="st38" d="M142.9,37.5c0.1,0.5,0.3,1,0.4,1.6v-2c-0.1-0.1-0.3-0.3-0.4-0.4V37.5z"/>
			<linearGradient id="SVGID_38_" gradientUnits="userSpaceOnUse" x1="151.2289" y1="68.0795" x2="158.1177" y2="68.0795">
				<stop  offset="0" style="stop-color:#F3F3FF"/>
				<stop  offset="0.1292" style="stop-color:#E2E2EF"/>
				<stop  offset="0.2878" style="stop-color:#F3F3FF"/>
				<stop  offset="0.4484" style="stop-color:#C4C4D0"/>
				<stop  offset="0.5443" style="stop-color:#E2E2EE"/>
				<stop  offset="0.6146" style="stop-color:#F3F3FF"/>
				<stop  offset="0.7472" style="stop-color:#EAEAF7"/>
				<stop  offset="0.9118" style="stop-color:#C4C4D0"/>
				<stop  offset="0.9472" style="stop-color:#D3D3E0"/>
				<stop  offset="0.9944" style="stop-color:#E4E4F1"/>
			</linearGradient>
			<path class="st39" d="M158.1,68.4c-0.1-0.2-0.2-0.4-0.3-0.7l-0.6-0.4v-1.2c-0.1-0.4-0.3-0.8-0.4-1.1v2.4l-5.6,3.3
				c0,0.2,0.1,0.3,0.1,0.5l5.7-3.3L158.1,68.4z"/>
		</g>
		<g>
			<linearGradient id="SVGID_39_" gradientUnits="userSpaceOnUse" x1="94.0325" y1="64.5287" x2="99.7772" y2="64.5287">
				<stop  offset="0" style="stop-color:#F3F3FF"/>
				<stop  offset="0.1292" style="stop-color:#E2E2EF"/>
				<stop  offset="0.2878" style="stop-color:#F3F3FF"/>
				<stop  offset="0.4484" style="stop-color:#C4C4D0"/>
				<stop  offset="0.5443" style="stop-color:#E2E2EE"/>
				<stop  offset="0.6146" style="stop-color:#F3F3FF"/>
				<stop  offset="0.7472" style="stop-color:#EAEAF7"/>
				<stop  offset="0.9118" style="stop-color:#C4C4D0"/>
				<stop  offset="0.9472" style="stop-color:#D3D3E0"/>
				<stop  offset="0.9944" style="stop-color:#E4E4F1"/>
			</linearGradient>
			<path class="st40" d="M95.7,60.7L94,60.2c0.1-0.1,0.1-0.3,0.2-0.4l5.6,1.5c0,0.1-0.1,0.3-0.1,0.4l-3.5-0.9l1.7,6.3l0.7-0.8
				c-0.1,0.3-0.1,0.5-0.2,0.8L98,67.6c0,0,0,0,0,0l0.2,0.7c-0.1,0.3-0.1,0.6-0.2,0.9L95.7,60.7C95.7,60.7,95.7,60.7,95.7,60.7z"/>
			<linearGradient id="SVGID_40_" gradientUnits="userSpaceOnUse" x1="99.5393" y1="48.1698" x2="103.0724" y2="48.1698">
				<stop  offset="0" style="stop-color:#F3F3FF"/>
				<stop  offset="0.1292" style="stop-color:#E2E2EF"/>
				<stop  offset="0.2878" style="stop-color:#F3F3FF"/>
				<stop  offset="0.4484" style="stop-color:#C4C4D0"/>
				<stop  offset="0.5443" style="stop-color:#E2E2EE"/>
				<stop  offset="0.6146" style="stop-color:#F3F3FF"/>
				<stop  offset="0.7472" style="stop-color:#EAEAF7"/>
				<stop  offset="0.9118" style="stop-color:#C4C4D0"/>
				<stop  offset="0.9472" style="stop-color:#D3D3E0"/>
				<stop  offset="0.9944" style="stop-color:#E4E4F1"/>
			</linearGradient>
			<path class="st41" d="M102.8,49.1l-0.2-0.6c0,0,0,0,0,0l-3.1-0.8c0.1-0.1,0.1-0.3,0.2-0.4l3.3,0.9
				C103,48.5,102.9,48.8,102.8,49.1z"/>
			<linearGradient id="SVGID_41_" gradientUnits="userSpaceOnUse" x1="99.923" y1="45.3285" x2="104.2379" y2="45.3285">
				<stop  offset="0" style="stop-color:#F3F3FF"/>
				<stop  offset="0.1292" style="stop-color:#E2E2EF"/>
				<stop  offset="0.2878" style="stop-color:#F3F3FF"/>
				<stop  offset="0.4484" style="stop-color:#C4C4D0"/>
				<stop  offset="0.5443" style="stop-color:#E2E2EE"/>
				<stop  offset="0.6146" style="stop-color:#F3F3FF"/>
				<stop  offset="0.7472" style="stop-color:#EAEAF7"/>
				<stop  offset="0.9118" style="stop-color:#C4C4D0"/>
				<stop  offset="0.9472" style="stop-color:#D3D3E0"/>
				<stop  offset="0.9944" style="stop-color:#E4E4F1"/>
			</linearGradient>
			<path class="st42" d="M100.3,46.1l4-2.3c-0.1,0.2-0.1,0.4-0.2,0.6l-4.1,2.4C100,46.6,100.2,46.4,100.3,46.1z"/>
			<linearGradient id="SVGID_42_" gradientUnits="userSpaceOnUse" x1="92.507" y1="131.9726" x2="92.6558" y2="131.9726">
				<stop  offset="0" style="stop-color:#F3F3FF"/>
				<stop  offset="0.1292" style="stop-color:#E2E2EF"/>
				<stop  offset="0.2878" style="stop-color:#F3F3FF"/>
				<stop  offset="0.4484" style="stop-color:#C4C4D0"/>
				<stop  offset="0.5443" style="stop-color:#E2E2EE"/>
				<stop  offset="0.6146" style="stop-color:#F3F3FF"/>
				<stop  offset="0.7472" style="stop-color:#EAEAF7"/>
				<stop  offset="0.9118" style="stop-color:#C4C4D0"/>
				<stop  offset="0.9472" style="stop-color:#D3D3E0"/>
				<stop  offset="0.9944" style="stop-color:#E4E4F1"/>
			</linearGradient>
			<path class="st43" d="M92.6,131.9c0,0.1,0,0.2,0,0.2c-0.1-0.1-0.1-0.1-0.1-0.2L92.6,131.9z"/>
			<linearGradient id="SVGID_43_" gradientUnits="userSpaceOnUse" x1="95.0145" y1="53.2621" x2="100.9783" y2="53.2621">
				<stop  offset="0" style="stop-color:#F3F3FF"/>
				<stop  offset="0.1292" style="stop-color:#E2E2EF"/>
				<stop  offset="0.2878" style="stop-color:#F3F3FF"/>
				<stop  offset="0.4484" style="stop-color:#C4C4D0"/>
				<stop  offset="0.5443" style="stop-color:#E2E2EE"/>
				<stop  offset="0.6146" style="stop-color:#F3F3FF"/>
				<stop  offset="0.7472" style="stop-color:#EAEAF7"/>
				<stop  offset="0.9118" style="stop-color:#C4C4D0"/>
				<stop  offset="0.9472" style="stop-color:#D3D3E0"/>
				<stop  offset="0.9944" style="stop-color:#E4E4F1"/>
			</linearGradient>
			<path class="st44" d="M98.6,49.6c0.1-0.3,0.3-0.6,0.4-1v6.5l1.9,1.1c0,0.2-0.1,0.3-0.1,0.5l-2-1.2L95,57.8
				c0.1-0.2,0.2-0.5,0.3-0.7l3.3-1.9V49.6z"/>
			<linearGradient id="SVGID_44_" gradientUnits="userSpaceOnUse" x1="81.0136" y1="96.1705" x2="97.195" y2="96.1705">
				<stop  offset="0" style="stop-color:#F3F3FF"/>
				<stop  offset="0.1292" style="stop-color:#E2E2EF"/>
				<stop  offset="0.2878" style="stop-color:#F3F3FF"/>
				<stop  offset="0.4484" style="stop-color:#C4C4D0"/>
				<stop  offset="0.5443" style="stop-color:#E2E2EE"/>
				<stop  offset="0.6146" style="stop-color:#F3F3FF"/>
				<stop  offset="0.7472" style="stop-color:#EAEAF7"/>
				<stop  offset="0.9118" style="stop-color:#C4C4D0"/>
				<stop  offset="0.9472" style="stop-color:#D3D3E0"/>
				<stop  offset="0.9944" style="stop-color:#E4E4F1"/>
			</linearGradient>
			<path class="st45" d="M85,119.8l-0.9-3.5c0,0,0,0,0,0l7.5-7.6v3.5c0.1-1.5,0.2-3,0.3-4.6l-0.9-3.4c0,0,0,0,0,0l1.3-1.3
				c0-0.2,0-0.5,0.1-0.7l-1.5,1.5l-1.7-6.3l3.6,1c0-0.1,0-0.3,0.1-0.4l-7.4-2l6.4-3.7l1.7,1c0-0.2,0-0.3,0.1-0.5l-1.5-0.9v-7.7
				l2.8,0.8c0-0.1,0.1-0.3,0.1-0.4l-2.5-0.7l3-1.7c0-0.2,0.1-0.4,0.1-0.6L92,83.4l-1-3.7c0,0,0,0,0,0l6-6c0.1-0.3,0.1-0.5,0.2-0.8
				l-1.4,1.4c0,0,0,0,0,0l-6.6-1.8c-0.1,0.3-0.2,0.6-0.3,0.8l2.1,8.1h0l0.5,1.9l-5.2-3.1c-0.1,0.1-0.1,0.3-0.2,0.4l1.3,0.8h0
				l4.1,2.4l-2.6,2.7c0,0,0,0,0,0l-4.5-1.2c0,0.1-0.1,0.3-0.1,0.4l4.3,1.2L84,91.5l-0.7-2.7c-0.1,0.3-0.2,0.5-0.2,0.8l1.6,5.9
				l-2.7-1.6c0,0.2-0.1,0.3-0.1,0.5l2.8,1.6l-2.6,2.7c0,0,0,0,0,0l-0.8-0.2c0,0.2,0,0.3,0,0.5l0.5,0.1L81,99.6c0,0.2,0,0.4,0,0.7
				l3.7-3.8v7.5l-3.3,2c0,0.2,0,0.3,0.1,0.5l3.5-2l6.6,3.9l-2.6,2.6h0l0,0c0,0,0,0,0,0l-0.2,0h0l-6.9-1.9c0.1,0.4,0.1,0.7,0.2,1.1
				l0,0.2l0.1,0.3c0,0,0,0,0,0c0.1,0.1,0.2,0.3,0.2,0.5C83,114.2,83.9,117.1,85,119.8z M90.9,79.3L89.3,73l6.2,1.7L90.9,79.3z
				 M85.1,95.6l-1-3.7c0,0,0,0,0,0l7.5-7.6v7.5L85.1,95.6z M91.5,107.7l-6.4-3.7v-7.7l3.6,1c0,0,0,0,0,0L91.5,107.7z M84,115.9
				l-1.3-5h0l-0.3-1.3l6.2,1.7L84,115.9z"/>
			<linearGradient id="SVGID_45_" gradientUnits="userSpaceOnUse" x1="85.1123" y1="123.6096" x2="91.9898" y2="123.6096">
				<stop  offset="0" style="stop-color:#F3F3FF"/>
				<stop  offset="0.1292" style="stop-color:#E2E2EF"/>
				<stop  offset="0.2878" style="stop-color:#F3F3FF"/>
				<stop  offset="0.4484" style="stop-color:#C4C4D0"/>
				<stop  offset="0.5443" style="stop-color:#E2E2EE"/>
				<stop  offset="0.6146" style="stop-color:#F3F3FF"/>
				<stop  offset="0.7472" style="stop-color:#EAEAF7"/>
				<stop  offset="0.9118" style="stop-color:#C4C4D0"/>
				<stop  offset="0.9472" style="stop-color:#D3D3E0"/>
				<stop  offset="0.9944" style="stop-color:#E4E4F1"/>
			</linearGradient>
			<path class="st46" d="M91,130.1l-2.2-8.5c0,0,0,0,0,0l-3.4-0.9c-0.1-0.2-0.2-0.5-0.3-0.7l6.4-3.8c0,0.2,0,0.3,0,0.5l-6,3.5
				l6.1,1.6c0,0.2,0,0.3,0,0.5l-2.3-0.6l1.7,6.3l1-1c0,0.2,0,0.4,0.1,0.6l-0.9,0.9c0,0,0,0,0,0l0.6,2.4
				C91.5,130.7,91.3,130.4,91,130.1z"/>
			<linearGradient id="SVGID_46_" gradientUnits="userSpaceOnUse" x1="105.5575" y1="37.8767" x2="106.0001" y2="37.8767">
				<stop  offset="0" style="stop-color:#F3F3FF"/>
				<stop  offset="0.1292" style="stop-color:#E2E2EF"/>
				<stop  offset="0.2878" style="stop-color:#F3F3FF"/>
				<stop  offset="0.4484" style="stop-color:#C4C4D0"/>
				<stop  offset="0.5443" style="stop-color:#E2E2EE"/>
				<stop  offset="0.6146" style="stop-color:#F3F3FF"/>
				<stop  offset="0.7472" style="stop-color:#EAEAF7"/>
				<stop  offset="0.9118" style="stop-color:#C4C4D0"/>
				<stop  offset="0.9472" style="stop-color:#D3D3E0"/>
				<stop  offset="0.9944" style="stop-color:#E4E4F1"/>
			</linearGradient>
			<path class="st47" d="M106,37.5c-0.1,0.5-0.3,1-0.4,1.6v-2c0.1-0.1,0.3-0.3,0.4-0.4V37.5z"/>
			<linearGradient id="SVGID_47_" gradientUnits="userSpaceOnUse" x1="90.7872" y1="68.0795" x2="97.676" y2="68.0795">
				<stop  offset="0" style="stop-color:#F3F3FF"/>
				<stop  offset="0.1292" style="stop-color:#E2E2EF"/>
				<stop  offset="0.2878" style="stop-color:#F3F3FF"/>
				<stop  offset="0.4484" style="stop-color:#C4C4D0"/>
				<stop  offset="0.5443" style="stop-color:#E2E2EE"/>
				<stop  offset="0.6146" style="stop-color:#F3F3FF"/>
				<stop  offset="0.7472" style="stop-color:#EAEAF7"/>
				<stop  offset="0.9118" style="stop-color:#C4C4D0"/>
				<stop  offset="0.9472" style="stop-color:#D3D3E0"/>
				<stop  offset="0.9944" style="stop-color:#E4E4F1"/>
			</linearGradient>
			<path class="st48" d="M90.8,68.4c0.1-0.2,0.2-0.4,0.3-0.7l0.6-0.4v-1.2c0.1-0.4,0.3-0.8,0.4-1.1v2.4l5.6,3.3
				c0,0.2-0.1,0.3-0.1,0.5l-5.7-3.3L90.8,68.4z"/>
		</g>
	</g>
	<g>
		<linearGradient id="SVGID_48_" gradientUnits="userSpaceOnUse" x1="111.3842" y1="205.7512" x2="111.4494" y2="205.7512">
			<stop  offset="0" style="stop-color:#F3F3FF"/>
			<stop  offset="0.1292" style="stop-color:#E2E2EF"/>
			<stop  offset="0.2878" style="stop-color:#F3F3FF"/>
			<stop  offset="0.4484" style="stop-color:#C4C4D0"/>
			<stop  offset="0.5443" style="stop-color:#E2E2EE"/>
			<stop  offset="0.6146" style="stop-color:#F3F3FF"/>
			<stop  offset="0.7472" style="stop-color:#EAEAF7"/>
			<stop  offset="0.9118" style="stop-color:#C4C4D0"/>
			<stop  offset="0.9472" style="stop-color:#D3D3E0"/>
			<stop  offset="0.9944" style="stop-color:#E4E4F1"/>
		</linearGradient>
		<path class="st49" d="M111.4,205.9L111.4,205.9l0-0.2L111.4,205.9z"/>
		<linearGradient id="SVGID_49_" gradientUnits="userSpaceOnUse" x1="111.1008" y1="205.8503" x2="111.8433" y2="205.8503">
			<stop  offset="0" style="stop-color:#F3F3FF"/>
			<stop  offset="0.1292" style="stop-color:#E2E2EF"/>
			<stop  offset="0.2878" style="stop-color:#F3F3FF"/>
			<stop  offset="0.4484" style="stop-color:#C4C4D0"/>
			<stop  offset="0.5443" style="stop-color:#E2E2EE"/>
			<stop  offset="0.6146" style="stop-color:#F3F3FF"/>
			<stop  offset="0.7472" style="stop-color:#EAEAF7"/>
			<stop  offset="0.9118" style="stop-color:#C4C4D0"/>
			<stop  offset="0.9472" style="stop-color:#D3D3E0"/>
			<stop  offset="0.9944" style="stop-color:#E4E4F1"/>
		</linearGradient>
		<polygon class="st50" points="111.8,206.1 111.2,206.1 111.1,205.7 111.4,205.6 111.4,205.6 111.4,205.6 111.4,205.6 111.7,205.6 
					"/>
	</g>
	<g>
		<linearGradient id="SVGID_50_" gradientUnits="userSpaceOnUse" x1="79.4636" y1="123.8272" x2="169.4312" y2="123.8272">
			<stop  offset="0" style="stop-color:#F3F3FF"/>
			<stop  offset="0.1292" style="stop-color:#E2E2EF"/>
			<stop  offset="0.2878" style="stop-color:#F3F3FF"/>
			<stop  offset="0.4484" style="stop-color:#C4C4D0"/>
			<stop  offset="0.5443" style="stop-color:#E2E2EE"/>
			<stop  offset="0.6146" style="stop-color:#F3F3FF"/>
			<stop  offset="0.7472" style="stop-color:#EAEAF7"/>
			<stop  offset="0.9118" style="stop-color:#C4C4D0"/>
			<stop  offset="0.9472" style="stop-color:#D3D3E0"/>
			<stop  offset="0.9944" style="stop-color:#E4E4F1"/>
		</linearGradient>
		<path class="st51" d="M169.3,97.8c-0.6-5.7-2.5-11-4.4-16c-0.8-1.9-1.5-3.9-2.2-5.8l-0.2-0.5c-4.8-12.4-9.3-24.2-15.7-36
			c-1-1.9-2.6-3.5-4.3-4.3c-0.3-0.2-0.6-0.3-0.9-0.4l-0.5-0.2l-0.4,0.4c0,0-0.1,0.1-0.1,0.1l0,0.1c0,0,0,0,0,0
			c-1.4,1.5-2,3.4-2.4,5.1c0,0,0,0.1,0,0.1l0,0c0,0.1-0.1,0.3-0.1,0.4c-1.6,5.7-2,11.4-2.5,16.9l0,0c-0.1,0.9-0.1,1.8-0.2,2.8
			c-1.3,14.4-1.7,28.5-1.9,41.6c0,0.6,0,1.2,0,1.9c-2.9-1-5.8-1.6-8.9-1.6c-3,0-6,0.5-8.8,1.5c0-0.6,0-1.3,0-1.9
			c-0.2-13.1-0.6-27.2-1.9-41.6c-0.1-0.9-0.2-1.9-0.2-2.8l0,0c-0.4-5.5-0.9-11.2-2.5-16.9c0-0.1-0.1-0.3-0.1-0.4l0,0
			c0,0,0-0.1,0-0.1c-0.4-1.7-1-3.6-2.4-5.1c0,0,0,0,0-0.1l0,0c0,0,0,0,0,0l0,0c0,0-0.1-0.1-0.1-0.1l-0.4-0.4l-0.5,0.2
			c-0.3,0.1-0.6,0.2-0.9,0.4c-1.7,0.8-3.3,2.4-4.3,4.3c-6.5,11.8-11,23.6-15.7,36l-0.2,0.5c-0.7,1.9-1.5,3.9-2.3,5.9
			c-1.9,5-3.8,10.3-4.4,16c-0.5,4.6,0.2,9.4,1,12.4c1,3.6,2.6,7.9,4.5,11.7c2.4,4.8,5,8.8,7.7,11.6c0.2,0.2,0.4,0.4,0.6,0.6
			c-0.4,2.7-0.7,5.4-0.7,8.1c0,2,0.1,4,0.3,5.9c1.3,10.9,6.2,20.7,13.5,26.9l4.5,30c0,0.1,0,0.3,0.1,0.5l0,0.3l0.1,0.2l0,0.1
			c0,0.1,0,0.1,0,0.2c0.6,2,2.3,3.8,4.7,5c2.3,1.2,5.1,1.9,8.1,1.9c0.1,0,0.2,0,0.3,0c0.1,0,0.2,0,0.3,0c3.1,0,6.1-0.8,8.4-2.1
			c2.4-1.3,4-3.2,4.5-5.2c0.1-0.4,0.3-1.4,0.3-1.6l4.3-29.1c7.1-6,12.1-15.5,13.6-26c0.3-2.3,0.5-4.7,0.5-7c0-2.7-0.2-5.4-0.6-8
			c0.2-0.2,0.4-0.4,0.6-0.6c2.7-2.7,5.3-6.7,7.7-11.6c1.9-3.8,3.5-8.1,4.5-11.7c0.6-2.3,1.2-5.6,1.2-9.1
			C169.4,100,169.4,98.9,169.3,97.8z M82.3,109.9c0-0.1-0.1-0.4-0.1-0.5c-0.4-2.1-1.3-7.3-0.9-11.4c0.7-5.7,2.6-11.1,4.3-15.6
			c0.8-2.1,1.6-4.2,2.4-6.3l0,0c4.8-12.4,9.2-24.1,15.6-35.8c0.5-1,1.2-1.8,1.9-2.5c-2.6,8.8-7.1,25.4-10.4,43
			c-4,21.5-5.1,38.1-3.1,49.4C87.8,124.9,84.2,116.3,82.3,109.9z M94.1,130.3c0,0.2-0.1,0.3-0.1,0.5c0,0.1,0,0.2-0.1,0.3
			c-2.2-11.1-1.3-28,2.9-50.2c3.4-18.1,8.1-35.1,10.7-44c0.7,1.1,1.2,2.4,1.6,3.8c0,0.1,0,0.1,0.1,0.2c0,0,0,0.1,0,0.1l0,0
			c0,0,0,0,0,0l0,0c1.6,5.6,2,11,2.5,16.7c0.1,1,0.1,1.9,0.2,2.8c1.3,14.3,1.7,28.4,1.9,41.5c0,0.9,0,1.7,0,2.5
			c-0.8,0.4-1.6,0.8-2.4,1.2c-0.2,0.1-0.3,0.2-0.5,0.3l0,0c-0.1,0-0.1,0.1-0.2,0.1c-0.1,0-0.1,0.1-0.2,0.1l-0.1,0
			c-0.5,0.3-0.9,0.6-1.4,0.9c-0.1,0.1-0.3,0.2-0.4,0.3l0,0c0,0,0,0,0,0l0,0c-0.1,0.1-0.2,0.2-0.3,0.2c0,0-0.1,0.1-0.1,0.1
			c-0.1,0.1-0.1,0.1-0.2,0.2l-0.1,0c-0.1,0-0.1,0.1-0.2,0.1l-0.1,0.1c0,0-0.1,0.1-0.1,0.1l0,0c-0.1,0.1-0.2,0.2-0.3,0.3
			c0,0,0,0-0.1,0c-0.1,0.1-0.2,0.2-0.3,0.2c-0.1,0.1-0.1,0.1-0.2,0.2c-0.1,0.1-0.2,0.1-0.2,0.2l0,0c0,0-0.1,0.1-0.1,0.1
			c-0.1,0.1-0.2,0.2-0.3,0.3c0,0-0.1,0.1-0.1,0.1c-0.1,0.1-0.2,0.2-0.3,0.3c-0.1,0.1-0.2,0.2-0.4,0.3c0,0-0.1,0.1-0.1,0.1
			c-0.1,0.1-0.2,0.2-0.3,0.3c-0.3,0.2-0.5,0.5-0.7,0.8c-0.1,0.1-0.3,0.3-0.4,0.4l-0.1,0.1c-0.1,0.1-0.2,0.2-0.2,0.3l0,0c0,0,0,0,0,0
			c-0.1,0.1-0.2,0.3-0.3,0.4c0,0-0.1,0.1-0.1,0.1c-0.1,0.1-0.2,0.2-0.3,0.3c-0.1,0.1-0.2,0.3-0.4,0.4c-0.1,0.2-0.3,0.3-0.4,0.4
			c-0.1,0.1-0.2,0.3-0.4,0.5l0,0c-0.1,0.1-0.2,0.3-0.3,0.4c-0.1,0.1-0.2,0.3-0.3,0.4c0,0,0,0,0,0l0,0c-0.1,0.1-0.2,0.3-0.3,0.4
			c-0.1,0.1-0.2,0.3-0.3,0.4l-0.1,0.1c-0.1,0.2-0.2,0.3-0.3,0.5l0,0c0,0,0,0.1,0,0.1c-0.1,0.1-0.2,0.3-0.2,0.4l-0.1,0.1
			c0,0-0.1,0.1-0.1,0.1l-0.1,0.2c-0.1,0.1-0.2,0.3-0.3,0.4l0,0c0,0.1-0.1,0.1-0.1,0.2l0,0.1c0,0.1-0.1,0.2-0.1,0.2
			c-0.1,0.2-0.2,0.4-0.3,0.6l0,0c-0.1,0.2-0.2,0.3-0.2,0.5c0,0-0.1,0.1-0.1,0.1l0,0c-0.1,0.2-0.2,0.3-0.2,0.5
			c-0.1,0.2-0.2,0.4-0.3,0.5c-0.2,0.4-0.4,0.7-0.5,1.1c-0.1,0.2-0.2,0.4-0.3,0.6l-0.1,0.2c-0.1,0.1-0.1,0.2-0.2,0.4
			c-0.2,0.4-0.3,0.8-0.5,1.2l-0.2,0.5c0,0.1-0.1,0.2-0.1,0.3l0,0.1c0,0.1-0.1,0.2-0.1,0.2l0,0c-0.2,0.6-0.4,1.2-0.6,1.8l-0.1,0.3
			c0,0.1-0.1,0.3-0.1,0.4l-0.1,0.3c-0.1,0.4-0.3,0.9-0.4,1.3C94.2,130,94.2,130.2,94.1,130.3z M135.4,206.6c0,0,0,0.1-0.1,0.1
			c0,0,0,0.1-0.1,0.1l0,0c0,0,0,0,0,0l0,0c0,0,0,0.1-0.1,0.1l0,0c0,0-0.1,0.1-0.1,0.1c0,0-0.1,0.1-0.1,0.1c0,0.1-0.1,0.1-0.1,0.2
			c0,0-0.1,0.1-0.1,0.1l0,0c0,0-0.1,0.1-0.1,0.1c-0.1,0.1-0.2,0.3-0.4,0.4c0,0-0.1,0.1-0.1,0.1c0,0-0.1,0.1-0.1,0.1
			c0,0-0.1,0.1-0.1,0.1c0,0-0.1,0.1-0.1,0.1c-0.1,0-0.1,0.1-0.2,0.1c-0.1,0.1-0.2,0.1-0.2,0.2l-0.1,0.1c0,0-0.1,0.1-0.1,0.1
			c-0.2,0.2-0.5,0.3-0.7,0.5c0,0-0.1,0-0.1,0.1c-0.1,0-0.1,0.1-0.2,0.1c0,0-0.1,0.1-0.1,0.1l0,0c0,0,0,0,0,0l0,0
			c-0.1,0-0.1,0.1-0.2,0.1c-0.1,0-0.1,0.1-0.2,0.1c-0.1,0-0.1,0.1-0.2,0.1c-0.1,0-0.1,0.1-0.2,0.1l0,0c-0.1,0-0.1,0.1-0.2,0.1
			c-0.1,0-0.1,0-0.2,0.1c0,0-0.1,0-0.1,0c-0.1,0-0.1,0-0.2,0.1c-0.1,0-0.1,0.1-0.2,0.1c-0.1,0-0.1,0-0.2,0.1l-0.1,0c0,0-0.1,0-0.1,0
			l0,0c0,0-0.1,0-0.1,0l0,0c0,0,0,0,0,0l0,0c-0.1,0-0.1,0-0.2,0.1l-0.1,0c0,0-0.1,0-0.2,0c-0.1,0-0.3,0.1-0.4,0.1
			c-0.1,0-0.1,0-0.2,0c-0.3,0.1-0.5,0.1-0.8,0.2c-0.1,0-0.1,0-0.2,0c-0.1,0-0.2,0-0.3,0.1c-0.1,0-0.1,0-0.2,0l0,0c0,0,0,0,0,0l0,0
			c0,0-0.1,0-0.1,0l0,0c0,0-0.1,0-0.1,0l-0.1,0c-0.1,0-0.1,0-0.2,0l0,0c0,0,0,0,0,0c-0.1,0-0.1,0-0.2,0c-0.1,0-0.1,0-0.2,0
			c-0.1,0-0.1,0-0.2,0c-0.1,0-0.1,0-0.2,0l-0.1,0c0,0-0.1,0-0.1,0c0,0-0.1,0-0.1,0c-0.1,0-0.1,0-0.2,0c0,0-0.1,0-0.1,0h0
			c-0.1,0-0.1,0-0.2,0c-0.2,0-0.3,0-0.5,0c-0.3,0-0.5,0-0.8,0c0,0-0.1,0-0.1,0c-0.1,0-0.1,0-0.2,0c-0.1,0-0.1,0-0.2,0
			c-0.1,0-0.1,0-0.2,0c0,0,0,0,0,0l0,0c-0.1,0-0.1,0-0.2,0l-0.1,0c0,0-0.1,0-0.1,0l-0.5-0.1c-0.1,0-0.1,0-0.2,0c-0.1,0-0.1,0-0.2,0
			c-0.1,0-0.2,0-0.2,0c-0.1,0-0.1,0-0.2,0c-0.1,0-0.2,0-0.3-0.1c-0.1,0-0.1,0-0.2,0c-0.3-0.1-0.5-0.1-0.8-0.2c-0.1,0-0.1,0-0.2-0.1
			c-0.1,0-0.3-0.1-0.4-0.1c0,0-0.1,0-0.1,0c-0.1,0-0.1,0-0.2,0c-0.1,0-0.2-0.1-0.3-0.1c-0.1,0-0.1,0-0.2-0.1c-0.1,0-0.1,0-0.2-0.1
			c0,0-0.1,0-0.1,0c0,0-0.1,0-0.1-0.1l0,0c-0.1,0-0.1,0-0.2-0.1c-0.2-0.1-0.3-0.1-0.5-0.2c-0.1,0-0.1-0.1-0.2-0.1
			c-0.1-0.1-0.3-0.1-0.4-0.2c-0.1-0.1-0.3-0.1-0.4-0.2l0,0c-0.1,0-0.1-0.1-0.2-0.1c-0.1-0.1-0.2-0.1-0.3-0.2c0,0-0.1-0.1-0.1-0.1
			c0,0-0.1-0.1-0.1-0.1c0,0-0.1,0-0.1-0.1c0,0-0.1-0.1-0.1-0.1l0,0c0,0-0.1,0-0.1-0.1c0,0,0,0-0.1,0c0,0-0.1,0-0.1-0.1l0,0
			c0,0-0.1-0.1-0.1-0.1l0,0l0,0c0,0-0.1,0-0.1-0.1c0,0-0.1,0-0.1-0.1c-0.1,0-0.1-0.1-0.2-0.1c0,0-0.1-0.1-0.1-0.1
			c-0.1,0-0.1-0.1-0.2-0.1c0,0-0.1-0.1-0.1-0.1l0,0c-0.1-0.1-0.1-0.1-0.2-0.2c-0.1-0.1-0.2-0.2-0.3-0.3c0,0-0.1-0.1-0.1-0.1l0,0
			c0,0-0.1-0.1-0.1-0.1c0,0-0.1-0.1-0.1-0.1l0,0c0,0,0,0,0,0l0,0c0,0,0-0.1-0.1-0.1c0,0-0.1-0.1-0.1-0.1c0,0,0-0.1-0.1-0.1l0,0
			c0,0,0,0,0-0.1c0,0,0,0,0-0.1l0,0c0,0,0,0,0,0l0,0c0,0,0-0.1-0.1-0.1l0,0c0,0,0,0,0,0l0,0c0,0,0,0,0,0c3.7-0.6,7.8-0.9,12-0.9
			c3.6,0,7,0.2,10.3,0.6C135.5,206.4,135.5,206.5,135.4,206.6L135.4,206.6L135.4,206.6z M154.3,145.6c-0.1,1.1-0.2,2.3-0.4,3.4
			c-1.5,10.3-6.3,19.4-13.2,25.1l-0.3,0.2l0,0.1c0,0.3-3.7,25.6-4.5,30.3c-3.4-0.4-7-0.7-10.8-0.7c-4.4,0-8.7,0.3-12.6,0.9
			c0-0.1,0-0.1,0-0.2l0,0l-4.5-30.3v-0.3l-0.3-0.3c-7.1-6-11.9-15.4-13.1-26c-0.2-1.9-0.3-3.8-0.3-5.7c0-2.4,0.2-4.9,0.5-7.3
			c0-0.3,0.1-0.5,0.1-0.8c1-5.8,3.1-11.3,6-15.9c0,0,0-0.1,0.1-0.1c0-0.1,0.1-0.1,0.1-0.2c1.6-2.4,3.4-4.6,5.4-6.4
			c1.8-1.7,3.8-3.1,5.9-4.3c0.8-0.4,1.6-0.8,2.5-1.2c3-1.3,6.2-1.9,9.4-1.9c3.2,0,6.3,0.6,9.4,1.9c0.9,0.4,1.9,0.8,2.7,1.3
			c0.1,0.1,0.3,0.2,0.4,0.3c0.1,0,0.1,0.1,0.2,0.1l0,0c0.1,0,0.2,0.1,0.3,0.2l0,0c0.4,0.3,0.9,0.6,1.3,0.9c0.1,0.1,0.2,0.2,0.3,0.2
			l0.1,0.1c0.1,0.1,0.2,0.1,0.3,0.2l0,0c0,0,0,0,0.1,0l0,0c0.1,0.1,0.2,0.1,0.2,0.2l0,0c0.1,0,0.1,0.1,0.2,0.1l0,0
			c0.1,0,0.1,0.1,0.2,0.1c0.1,0.1,0.2,0.2,0.3,0.3l0,0c0.1,0.1,0.2,0.1,0.3,0.2l0,0c0.1,0,0.1,0.1,0.2,0.2c0.1,0,0.1,0.1,0.2,0.1
			l0.1,0.1c0,0,0,0,0.1,0.1c0.1,0.1,0.2,0.2,0.3,0.3l0,0c0,0,0,0,0.1,0l0,0c0.1,0.1,0.2,0.2,0.3,0.3c0.1,0.1,0.2,0.2,0.3,0.3
			c0,0,0.1,0.1,0.1,0.1c0.1,0.1,0.2,0.2,0.3,0.3c0.2,0.2,0.5,0.5,0.7,0.7c0.1,0.1,0.2,0.2,0.3,0.3l0.1,0.1c0.1,0.1,0.2,0.2,0.3,0.3
			l0,0c0.1,0.1,0.2,0.3,0.3,0.4l0,0c0,0,0,0,0.1,0.1l0,0c0.1,0.1,0.2,0.2,0.3,0.3c0.1,0.1,0.2,0.2,0.3,0.4c0.1,0.1,0.2,0.3,0.3,0.4
			c0.1,0.1,0.2,0.2,0.3,0.3l0.1,0.1c0,0,0,0,0,0l0,0c0.1,0.1,0.2,0.3,0.3,0.4c0.1,0.1,0.2,0.3,0.3,0.4l0,0.1
			c0.1,0.1,0.2,0.3,0.3,0.4c0.1,0.1,0.2,0.3,0.3,0.4l0.1,0.1c0.1,0.1,0.2,0.3,0.3,0.4c0.1,0.2,0.2,0.3,0.3,0.5
			c0.2,0.3,0.3,0.5,0.5,0.8l0.1,0.1c0,0,0,0,0,0l0,0.1c0.1,0.1,0.1,0.2,0.2,0.3c0.1,0.2,0.2,0.4,0.3,0.6c0.1,0.1,0.2,0.3,0.2,0.4
			l0,0c0,0,0,0.1,0.1,0.1c0.1,0.1,0.2,0.3,0.2,0.4c0.1,0.2,0.2,0.4,0.3,0.5c0.2,0.3,0.3,0.7,0.5,1.1c0.1,0.2,0.2,0.4,0.2,0.5
			c0,0,0,0,0,0l0.1,0.1c0.1,0.1,0.1,0.2,0.2,0.4c0.2,0.4,0.3,0.8,0.5,1.2c0.1,0.1,0.1,0.3,0.2,0.5l0.3,0.7c0.2,0.5,0.4,1.1,0.6,1.7
			c0,0.1,0.1,0.2,0.1,0.3c0,0.1,0.1,0.3,0.1,0.4l0,0c0,0.1,0.1,0.2,0.1,0.3c0.1,0.4,0.2,0.9,0.3,1.3c0,0.1,0.1,0.3,0.1,0.5
			c0,0.2,0.1,0.3,0.1,0.5l0.1,0.3c0,0,0,0.1,0,0.1l0,0c0,0.1,0.1,0.2,0.1,0.3c0,0.2,0.1,0.4,0.1,0.6c0,0,0,0.1,0,0.1
			c0,0.1,0.1,0.3,0.1,0.4l0.1,0.3c0,0.1,0,0.3,0.1,0.4c0.5,2.7,0.7,5.4,0.7,8.2C154.5,143.3,154.4,144.4,154.3,145.6z M154.9,131.2
			c0-0.1,0-0.2-0.1-0.3c0-0.2-0.1-0.3-0.1-0.5c0-0.2-0.1-0.3-0.1-0.5c-0.1-0.4-0.2-0.9-0.4-1.3l-0.1-0.3c0-0.1-0.1-0.3-0.1-0.4
			l-0.1-0.3c-0.2-0.6-0.4-1.2-0.6-1.8l0,0c0-0.1-0.1-0.2-0.1-0.2l0-0.1c0-0.1-0.1-0.2-0.1-0.3l-0.2-0.5c-0.2-0.4-0.3-0.8-0.5-1.2
			c-0.1-0.1-0.1-0.2-0.2-0.4l0-0.1l0-0.1c-0.1-0.2-0.2-0.4-0.3-0.6c-0.2-0.4-0.3-0.7-0.5-1.1c-0.1-0.2-0.2-0.4-0.3-0.5
			c-0.1-0.1-0.1-0.3-0.2-0.5l0,0c0,0,0-0.1-0.1-0.1c-0.1-0.1-0.2-0.3-0.2-0.5l0,0c-0.1-0.2-0.2-0.4-0.3-0.6c0-0.1-0.1-0.1-0.1-0.2
			v-0.1l-0.2-0.2c-0.2-0.3-0.4-0.6-0.6-0.9c-0.1-0.1-0.2-0.3-0.3-0.4L149,117c-0.1-0.2-0.2-0.3-0.3-0.5l-0.1-0.1
			c-0.1-0.1-0.2-0.3-0.3-0.4c-0.1-0.1-0.2-0.3-0.3-0.4l0,0c0,0,0,0,0,0c-0.1-0.1-0.2-0.3-0.3-0.4c-0.1-0.1-0.2-0.3-0.3-0.4l0,0
			c-0.1-0.2-0.2-0.3-0.4-0.5c-0.1-0.1-0.2-0.3-0.4-0.4c-0.1-0.2-0.3-0.3-0.4-0.4c-0.1-0.1-0.2-0.2-0.3-0.3c0,0-0.1-0.1-0.1-0.1
			c-0.1-0.1-0.2-0.3-0.3-0.4c0,0,0,0,0,0l0,0c-0.1-0.1-0.2-0.2-0.2-0.2l-0.1-0.1c-0.1-0.1-0.3-0.3-0.4-0.4c-0.2-0.3-0.5-0.5-0.7-0.7
			c-0.1-0.1-0.2-0.2-0.3-0.3c0,0-0.1-0.1-0.1-0.1c-0.1-0.1-0.2-0.2-0.3-0.3c-0.1-0.1-0.2-0.2-0.3-0.3c0,0-0.1-0.1-0.1-0.1
			c-0.1-0.1-0.2-0.2-0.3-0.3c0,0-0.1,0-0.1-0.1l0,0c-0.1-0.1-0.2-0.1-0.2-0.2c-0.1-0.1-0.1-0.1-0.2-0.2c-0.1-0.1-0.2-0.2-0.3-0.2
			c0,0,0,0-0.1,0c-0.1-0.1-0.2-0.2-0.3-0.3l0,0c0,0-0.1-0.1-0.1-0.1l-0.1-0.1c-0.1,0-0.1-0.1-0.2-0.1l0,0c-0.1-0.1-0.2-0.1-0.2-0.2
			c0,0-0.1-0.1-0.1-0.1c-0.1-0.1-0.2-0.2-0.3-0.3l0,0c0,0,0,0,0,0l0,0c-0.1-0.1-0.2-0.2-0.4-0.2c-0.5-0.3-0.9-0.6-1.4-0.9l-0.1,0
			c-0.1,0-0.1-0.1-0.2-0.1c-0.1,0-0.1-0.1-0.2-0.1l0,0c-0.2-0.1-0.3-0.2-0.5-0.3c-0.8-0.4-1.6-0.8-2.4-1.2c0-0.8,0-1.6,0-2.5
			c0.2-13.1,0.6-27.2,1.9-41.5c0.1-0.9,0.1-1.8,0.2-2.8c0.4-5.7,0.9-11.1,2.5-16.7l0,0c0,0,0,0,0,0l0,0c0,0,0-0.1,0-0.1
			c0-0.1,0-0.1,0.1-0.2c0.4-1.4,0.9-2.6,1.6-3.8c2.6,8.9,7.3,25.9,10.8,44C156.2,103.2,157.2,120,154.9,131.2z M166.7,109.4
			L166.7,109.4c0,0.1-0.1,0.4-0.1,0.5c-1.9,6.5-5.4,15-9.7,20.2c2-11.3,0.9-27.9-3.1-49.4c-3.3-17.6-7.8-34.1-10.4-43
			c0.8,0.7,1.4,1.6,1.9,2.5c6.4,11.7,10.9,23.4,15.6,35.8l0,0c0.8,2.1,1.6,4.2,2.4,6.3c1.7,4.5,3.5,9.9,4.3,15.6
			C168,102.1,167.1,107.3,166.7,109.4z"/>
	</g>
</g>
</svg>
