<?xml version="1.0" encoding="utf-8"?>
<!-- Generator: Adobe Illustrator 16.0.0, SVG Export Plug-In . SVG Version: 6.00 Build 0)  -->
<!DOCTYPE svg PUBLIC "-//W3C//DTD SVG 1.1//EN" "http://www.w3.org/Graphics/SVG/1.1/DTD/svg11.dtd">
<svg fill="#f2cf8d" version="1.1" id="Layer_1" xmlns="http://www.w3.org/2000/svg" xmlns:xlink="http://www.w3.org/1999/xlink" x="0px" y="0px"
	 width="24px" height="24px" viewBox="0 0 24 24" enable-background="new 0 0 24 24" xml:space="preserve">
<g>
	<path d="M14.112,8.652c0,0-0.073,0.646-0.689,0.291c-0.844-0.486-1.332,0.324-1.332,0.324s0.668,0.084,1.42,0.084
		S14.112,8.652,14.112,8.652z"/>
	<path d="M11.911,9.268c0,0-0.489-0.811-1.334-0.324C9.962,9.299,9.888,8.652,9.888,8.652S9.738,9.352,10.49,9.352
		S11.911,9.268,11.911,9.268z"/>
	<path d="M8.177,8.844c0.688,2.01,1.982,3.538,3.824,3.538c1.773,0,3.087-1.506,3.797-3.513c1.432-1.445,1.094-2.525,0.764-3.041
		C17.34,2.102,14.962,0,11.865,0c-5.55,0-4.581,6.08-4.581,6.08C7.29,6.081,7.296,6.081,7.302,6.082
		C7.049,6.654,6.974,7.616,8.177,8.844z M10.495,4.33L10.09,5.839c1.981-0.604,2.247-0.936,2.559-1.163
		c0.324-0.235,0.597-0.474,0.82-0.691c0.103,0.184,0.231,0.352,0.378,0.504c0.147,0.154,0.365-1.397,0.365-1.397
		s0.547,0.942,0.623,1.247c0.053,0.216,0.4,1.09,0.586,1.17c-0.07,2.885-1.364,5.9-3.42,5.9c-1.915,0-3.169-2.615-3.389-5.305
		C9.138,6.072,10.495,4.33,10.495,4.33z"/>
	<g>
		<path d="M10.458,15.087c0,0,0.705-0.216,1.098-0.708c0.054,0.037,0.115,0.059,0.182,0.059h0.451c0.086,0,0.164-0.037,0.228-0.096
			c0.386,0.52,1.126,0.745,1.126,0.745c0.803-0.292,0.842-1.718,0.459-2.106c-0.33-0.337-1.289,0.176-1.543,0.32
			c-0.066-0.087-0.162-0.142-0.27-0.142h-0.451c-0.096,0-0.181,0.043-0.246,0.112c-0.313-0.173-1.182-0.607-1.492-0.291
			C9.616,13.369,9.655,14.795,10.458,15.087z"/>
		<circle cx="12" cy="20.028" r="0.487"/>
		<circle cx="12" cy="16.623" r="0.486"/>
		<path d="M21.95,16.996c-1.15-3.027-3.779-4.277-3.814-4.294l-2.792-1.028l-0.37,0.9l0.781,0.287l-2.873,9.481
			c-0.292,0.021-0.585,0.036-0.882,0.036c-0.282,0-0.562-0.014-0.839-0.033l-2.878-9.498l0.747-0.274l-0.373-0.899l-2.758,1.014
			l-0.035,0.015c-0.035,0.017-2.663,1.267-3.814,4.295c-0.234,0.617-0.407,1.308-0.484,2.077C4.042,22.08,7.793,23.998,11.992,24
			c0.006,0,0.013,0,0.019,0c0.227,0,0.452-0.006,0.676-0.018c0.005,0,0.01,0,0.014,0c3.918-0.2,7.395-2.068,9.734-4.908
			C22.357,18.305,22.185,17.613,21.95,16.996z M16.536,18.366l1.621,1.54c-1.277,0.588-3.305,0.467-3.305,0.467L16.536,18.366z"/>
	</g>
</g>
</svg>
