<?xml version="1.0" standalone="no"?>
<!DOCTYPE svg PUBLIC "-//W3C//DTD SVG 20010904//EN"
 "http://www.w3.org/TR/2001/REC-SVG-20010904/DTD/svg10.dtd">
<svg version="1.0" xmlns="http://www.w3.org/2000/svg"
 width="785.200360pt" height="45.764867pt" viewBox="0 0 785.200360 45.764867"
 preserveAspectRatio="xMidYMid meet">
<metadata>
Created by potrace 1.12, written by Peter Selinger 2001-2015
</metadata>
<g transform="translate(-1.299640,81.996275) scale(0.100000,-0.100000)"
fill="#000000" stroke="none">
<path d="M3492 800 c-32 -20 -62 -71 -62 -107 0 -70 65 -162 134 -194 56 -25
157 -25 214 1 69 31 101 58 132 113 l29 51 10 -26 c15 -40 79 -107 125 -130
27 -14 66 -23 116 -26 68 -3 80 -1 130 25 43 22 63 41 88 83 29 48 33 62 29
108 -5 70 -43 112 -109 119 -76 9 -128 -30 -128 -96 0 -48 32 -74 86 -69 51 4
56 -7 19 -50 -34 -41 -75 -55 -144 -50 -76 5 -142 51 -190 131 l-34 57 -28
-48 c-31 -55 -87 -108 -135 -128 -44 -19 -128 -18 -165 1 -26 14 -69 67 -69
86 0 4 19 4 43 2 51 -6 84 16 93 64 6 28 1 38 -29 68 -29 29 -42 35 -78 35
-26 0 -57 -8 -77 -20z"/>
<path d="M3366 648 c-32 -45 -10 -133 46 -185 94 -88 283 -89 391 -2 37 30 39
30 63 14 14 -9 36 -38 48 -65 l22 -48 23 49 c12 27 33 57 47 66 23 15 26 15
47 -5 12 -11 49 -33 82 -48 49 -23 74 -28 135 -27 44 0 90 6 111 15 45 20 106
73 125 109 20 40 18 112 -4 132 -29 26 -40 20 -53 -25 -14 -55 -100 -142 -156
-157 -88 -25 -197 -8 -265 41 l-31 22 -34 -39 c-18 -21 -33 -34 -33 -29 -1 5
-11 21 -23 37 l-23 28 -63 -33 c-114 -59 -243 -49 -328 25 -37 33 -73 94 -73
127 0 28 -34 26 -54 -2z"/>
<path d="M3090 589 c-13 -6 -32 -16 -40 -24 -13 -12 -224 -16 -1310 -23 -1263
-10 -1296 -9 -1316 9 -29 27 -88 25 -108 -3 -15 -21 -27 -23 -157 -29 -77 -4
-143 -9 -145 -12 -7 -7 56 -15 185 -23 84 -5 107 -9 120 -24 27 -32 64 -35 97
-7 l29 23 445 -7 c245 -4 827 -8 1294 -8 l850 -1 23 -22 c17 -15 37 -23 63
-23 26 0 46 8 63 23 18 17 35 22 80 22 40 0 55 4 53 13 -3 6 -7 24 -10 40 -6
24 -11 27 -48 27 -31 0 -49 7 -67 24 -31 30 -68 39 -101 25z"/>
<path d="M3916 579 c-15 -22 -13 -27 20 -77 1 -2 10 10 18 27 14 25 14 34 4
51 -16 25 -23 25 -42 -1z"/>
<path d="M4715 586 c-17 -7 -36 -20 -44 -29 -9 -11 -29 -17 -56 -17 -40 0 -43
-2 -49 -31 -9 -49 -9 -49 46 -49 40 0 57 -5 75 -22 17 -15 37 -23 63 -23 26 0
46 8 63 23 l23 22 850 1 c467 0 1049 4 1294 8 437 8 445 7 467 -12 30 -26 77
-26 106 1 18 17 40 22 122 27 55 3 120 9 145 12 l45 6 -40 8 c-22 4 -84 8
-137 8 -88 1 -99 3 -126 26 -36 30 -87 33 -116 6 -20 -18 -53 -19 -1316 -9
-1246 9 -1295 10 -1315 28 -28 26 -65 32 -100 16z"/>
</g>
</svg>
